<svg width="93" height="39" viewBox="0 0 93 39" fill="none" xmlns="http://www.w3.org/2000/svg">
<path d="M38.5568 31V7.72727H46.8523C48.6629 7.72727 50.1629 8.05682 51.3523 8.71591C52.5417 9.375 53.4318 10.2765 54.0227 11.4205C54.6136 12.5568 54.9091 13.8371 54.9091 15.2614C54.9091 16.6932 54.6098 17.9811 54.0114 19.125C53.4205 20.2614 52.5265 21.1629 51.3295 21.8295C50.1402 22.4886 48.6439 22.8182 46.8409 22.8182H41.1364V19.8409H46.5227C47.6667 19.8409 48.5947 19.6439 49.3068 19.25C50.0189 18.8485 50.5417 18.303 50.875 17.6136C51.2083 16.9242 51.375 16.1402 51.375 15.2614C51.375 14.3826 51.2083 13.6023 50.875 12.9205C50.5417 12.2386 50.0152 11.7045 49.2955 11.3182C48.5833 10.9318 47.6439 10.7386 46.4773 10.7386H42.0682V31H38.5568ZM63.6761 31.3864C62.5701 31.3864 61.5701 31.1818 60.6761 30.7727C59.7822 30.3561 59.0739 29.7538 58.5511 28.9659C58.036 28.178 57.7784 27.2121 57.7784 26.0682C57.7784 25.0833 57.9678 24.2727 58.3466 23.6364C58.7254 23 59.2367 22.4962 59.8807 22.125C60.5246 21.7538 61.2443 21.4735 62.0398 21.2841C62.8352 21.0947 63.6458 20.9508 64.4716 20.8523C65.517 20.7311 66.3655 20.6326 67.017 20.5568C67.6686 20.4735 68.142 20.3409 68.4375 20.1591C68.733 19.9773 68.8807 19.6818 68.8807 19.2727V19.1932C68.8807 18.2008 68.6004 17.4318 68.0398 16.8864C67.4867 16.3409 66.661 16.0682 65.5625 16.0682C64.4186 16.0682 63.517 16.322 62.858 16.8295C62.2064 17.3295 61.7557 17.8864 61.5057 18.5L58.3125 17.7727C58.6913 16.7121 59.2443 15.8561 59.9716 15.2045C60.7064 14.5455 61.5511 14.0682 62.5057 13.7727C63.4602 13.4697 64.464 13.3182 65.517 13.3182C66.214 13.3182 66.9527 13.4015 67.733 13.5682C68.5208 13.7273 69.2557 14.0227 69.9375 14.4545C70.6269 14.8864 71.1913 15.5038 71.6307 16.3068C72.0701 17.1023 72.2898 18.1364 72.2898 19.4091V31H68.9716V28.6136H68.8352C68.6155 29.053 68.286 29.4848 67.8466 29.9091C67.4072 30.3333 66.8428 30.6856 66.1534 30.9659C65.464 31.2462 64.6383 31.3864 63.6761 31.3864ZM64.4148 28.6591C65.3542 28.6591 66.1572 28.4735 66.8239 28.1023C67.4981 27.7311 68.0095 27.2462 68.358 26.6477C68.714 26.0417 68.892 25.3939 68.892 24.7045V22.4545C68.7708 22.5758 68.536 22.6894 68.1875 22.7955C67.8466 22.8939 67.4564 22.9811 67.017 23.0568C66.5777 23.125 66.1496 23.1894 65.733 23.25C65.3163 23.303 64.9678 23.3485 64.6875 23.3864C64.0284 23.4697 63.4261 23.6098 62.8807 23.8068C62.3428 24.0038 61.911 24.2879 61.5852 24.6591C61.267 25.0227 61.108 25.5076 61.108 26.1136C61.108 26.9545 61.4186 27.5909 62.0398 28.0227C62.661 28.447 63.4527 28.6591 64.4148 28.6591ZM78.3381 37.5455C77.8305 37.5455 77.3684 37.5038 76.9517 37.4205C76.535 37.3447 76.2244 37.2614 76.0199 37.1705L76.8381 34.3864C77.4593 34.553 78.0123 34.625 78.4972 34.6023C78.982 34.5795 79.41 34.3977 79.7812 34.0568C80.16 33.7159 80.4934 33.1591 80.7812 32.3864L81.2017 31.2273L74.8153 13.5455H78.4517L82.8722 27.0909H83.054L87.4744 13.5455H91.1222L83.929 33.3295C83.5956 34.2386 83.1714 35.0076 82.6562 35.6364C82.1411 36.2727 81.5275 36.75 80.8153 37.0682C80.1032 37.3864 79.2775 37.5455 78.3381 37.5455Z" fill="#5F6368"/>
<g clip-path="url(#clip0_5_48)">
<path fill-rule="evenodd" clip-rule="evenodd" d="M6.8837 19C6.8837 17.9838 7.05247 17.0096 7.3537 16.0958L2.08115 12.0695C1.05356 14.1559 0.474609 16.5068 0.474609 19C0.474609 21.491 1.05285 23.8405 2.07902 25.9255L7.34872 21.8914C7.05034 20.9818 6.8837 20.0112 6.8837 19Z" fill="#FBBC05"/>
<path fill-rule="evenodd" clip-rule="evenodd" d="M16.1413 9.75553C18.3489 9.75553 20.3428 10.5378 21.9095 11.8178L26.4671 7.26664C23.6898 4.84886 20.1292 3.35553 16.1413 3.35553C9.95012 3.35553 4.62915 6.89615 2.08118 12.0695L7.35372 16.0958C8.5686 12.408 12.0316 9.75553 16.1413 9.75553Z" fill="#EB4335"/>
<path fill-rule="evenodd" clip-rule="evenodd" d="M16.1413 28.2444C12.0316 28.2444 8.5686 25.592 7.35372 21.9041L2.08118 25.9297C4.62915 31.1038 9.95012 34.6444 16.1413 34.6444C19.9625 34.6444 23.6107 33.2876 26.3488 30.7454L21.3441 26.8762C19.9319 27.7658 18.1538 28.2444 16.1413 28.2444Z" fill="#34A853"/>
<path fill-rule="evenodd" clip-rule="evenodd" d="M31.0963 19C31.0963 18.0755 30.9539 17.08 30.7403 16.1555H16.1418V22.2H24.5448C24.1247 24.2608 22.981 25.8451 21.3445 26.8762L26.3493 30.7454C29.2256 28.0759 31.0963 24.0993 31.0963 19Z" fill="#4285F4"/>
</g>
<defs>
<clipPath id="clip0_5_48">
<rect width="32" height="32" fill="white" transform="translate(0 3)"/>
</clipPath>
</defs>
</svg>
