<svg width="26" height="8" viewBox="0 0 26 8" fill="none" xmlns="http://www.w3.org/2000/svg">
<g clip-path="url(#clip0_15_189)">
<path fill-rule="evenodd" clip-rule="evenodd" d="M24.0855 -0.270508L25.7982 3.86909L22.1958 8.01119L22.624 6.13269L24.594 3.86909L23.6573 1.60539L24.0855 -0.270508Z" fill="#0E8635"/>
<path fill-rule="evenodd" clip-rule="evenodd" d="M22.8813 -0.270508L24.594 3.86909L20.9895 8.01119L22.8813 -0.270508Z" fill="#E97208"/>
<path d="M0.766651 9.58192H0.966331L0.781061 10.5198C0.754301 10.6599 0.758421 10.765 0.797531 10.835C0.834581 10.905 0.906631 10.9401 1.00956 10.9401C1.11248 10.9401 1.19482 10.905 1.2607 10.835C1.32657 10.765 1.37186 10.6599 1.40067 10.5198L1.58594 9.58192H1.78768L1.59623 10.5448C1.55506 10.755 1.48096 10.91 1.37597 11.0151C1.27099 11.1201 1.13307 11.1702 0.962211 11.1702C0.791351 11.1702 0.674021 11.1176 0.610201 11.0151C0.546391 10.9125 0.536101 10.755 0.577271 10.5448L0.766651 9.58192ZM19.8614 7.97602H18.5069L20.3905 -0.285583H21.745L19.8614 7.97602ZM8.6014 7.45832C8.5273 7.78342 8.2802 8.01362 8.0023 8.01362H1.01779C0.826351 8.01362 0.684311 7.93352 0.591681 7.77842C0.499041 7.62092 0.478461 7.42582 0.534041 7.19312L2.23643 -0.263083H3.59093L2.07175 6.39772H7.49182L9.0131 -0.263083H10.3676L8.6014 7.45832ZM19.1595 -0.0254841C19.0668 -0.183084 18.9207 -0.260584 18.7251 -0.260584H11.2795L10.9131 1.36022H17.6856L17.2904 3.08862H11.8703V3.08362H10.5158L9.3918 8.01612H10.7463L11.4997 4.70692H17.5888C17.7803 4.70692 17.9594 4.62932 18.1261 4.47182C18.2928 4.31422 18.404 4.11912 18.4555 3.88652L19.2089 0.577316C19.2706 0.329716 19.2521 0.132116 19.1595 -0.0254841ZM24.7525 11.1276L25.0571 9.58192H25.7488L25.7076 9.79452H25.2177L25.1415 10.1822H25.6315L25.5882 10.4023H25.0983L24.9995 10.9025H25.4894L25.4462 11.1276H24.7525ZM24.7319 9.95712C24.6866 9.89702 24.6351 9.85202 24.5775 9.82202C24.5199 9.79202 24.456 9.77702 24.3861 9.77702C24.2502 9.77702 24.1287 9.83202 24.0238 9.93952C23.9167 10.0471 23.8467 10.1897 23.8138 10.3623C23.7808 10.5298 23.7953 10.6674 23.857 10.775C23.9188 10.8825 24.0114 10.9375 24.139 10.9375C24.2131 10.9375 24.2852 10.92 24.3572 10.8875C24.4293 10.855 24.5034 10.805 24.5775 10.7399L24.5219 11.0251C24.4581 11.0726 24.3922 11.1101 24.3243 11.1326C24.2564 11.1552 24.1843 11.1677 24.1102 11.1677C24.0155 11.1677 23.9311 11.1477 23.8591 11.1101C23.787 11.0726 23.7273 11.0151 23.68 10.9401C23.6347 10.8675 23.6038 10.78 23.5915 10.6799C23.5791 10.5799 23.5832 10.4723 23.6059 10.3598C23.6285 10.2472 23.6656 10.1396 23.717 10.0396C23.7685 9.93952 23.8344 9.85202 23.9105 9.77702C23.9867 9.70192 24.069 9.64442 24.1555 9.60442C24.242 9.56442 24.3325 9.54682 24.4252 9.54682C24.4972 9.54682 24.5651 9.55942 24.6248 9.58692C24.6845 9.61442 24.7422 9.65442 24.7936 9.70692L24.7319 9.95712ZM23.2065 11.1276L23.1448 10.7299H22.6528L22.4305 11.1276H22.2184L23.1365 9.51932L23.4206 11.1276H23.2065ZM22.7681 10.5198H23.1139L23.0563 10.1672C23.0542 10.1446 23.0501 10.1196 23.048 10.0896C23.046 10.0596 23.0439 10.0271 23.0439 9.99212C23.0295 10.0246 23.0171 10.0571 23.0027 10.0871C22.9904 10.1171 22.976 10.1421 22.9636 10.1672L22.7681 10.5198ZM21.5391 11.1276L21.8438 9.58192H22.5354L22.4943 9.79452H22.0044L21.9282 10.1797H22.4181L22.3749 10.3998H21.885L21.7409 11.1276H21.5391ZM20.8907 10.4373L20.7548 11.1301H20.5654L20.8701 9.58442H21.1521C21.2345 9.58442 21.2962 9.59192 21.3395 9.60442C21.3827 9.61692 21.4177 9.63942 21.4424 9.67192C21.4733 9.70942 21.4938 9.75702 21.5021 9.81702C21.5103 9.87702 21.5082 9.94202 21.4959 10.0121C21.4712 10.1371 21.428 10.2322 21.3662 10.3022C21.3045 10.3723 21.2242 10.4148 21.1295 10.4273L21.4177 11.1301H21.1892L20.9133 10.4373H20.8907ZM20.9422 10.2397H20.9792C21.0863 10.2397 21.1604 10.2247 21.2015 10.1922C21.2427 10.1622 21.2715 10.1071 21.2859 10.0271C21.3024 9.94202 21.2962 9.88202 21.2653 9.84702C21.2345 9.81202 21.1686 9.79452 21.0677 9.79452H21.0307L20.9422 10.2397ZM19.6432 11.1276L19.9479 9.58192H20.6396L20.5984 9.79452H20.1085L20.0323 10.1822H20.5222L20.479 10.4023H19.9891L19.8903 10.9025H20.3802L20.3349 11.1276H19.6432ZM19.423 9.79452L19.1595 11.1276H18.9577L19.2212 9.79452H18.8919L18.933 9.58192H19.7914L19.7503 9.79452H19.423ZM17.3665 11.1276L17.6835 9.51932L18.2846 10.4648C18.3011 10.4923 18.3176 10.5198 18.332 10.5499C18.3484 10.5799 18.3649 10.6149 18.3814 10.6524L18.5934 9.57942H18.7807L18.4637 11.1852L17.8482 10.2222C17.8317 10.1972 17.8173 10.1697 17.8029 10.1396C17.7885 10.1096 17.7762 10.0796 17.7638 10.0496L17.5518 11.1251H17.3665V11.1276ZM16.8745 11.1276L17.1792 9.58192H17.3809L17.0763 11.1276H16.8745ZM15.3842 10.8175L15.5633 10.7249C15.5653 10.795 15.5818 10.8475 15.6168 10.8825C15.6497 10.9175 15.6991 10.9375 15.7629 10.9375C15.8226 10.9375 15.8741 10.9175 15.9173 10.875C15.9606 10.8325 15.9894 10.7775 16.0038 10.7074C16.0223 10.6174 15.977 10.5348 15.87 10.4648C15.8556 10.4548 15.8432 10.4473 15.835 10.4423C15.7156 10.3598 15.6374 10.2847 15.6065 10.2172C15.5736 10.1497 15.5674 10.0671 15.588 9.96962C15.6127 9.84452 15.6662 9.74192 15.7506 9.66442C15.835 9.58692 15.9317 9.54682 16.0429 9.54682C16.1335 9.54682 16.2055 9.56942 16.259 9.61192C16.3126 9.65692 16.3414 9.71942 16.3496 9.80202L16.1726 9.90452C16.1561 9.85702 16.1376 9.81952 16.1108 9.79702C16.0861 9.77452 16.0532 9.76452 16.0161 9.76452C15.9626 9.76452 15.9153 9.78202 15.8762 9.81702C15.837 9.85202 15.8123 9.89952 15.8 9.95962C15.7815 10.0521 15.835 10.1396 15.9585 10.2197C15.9688 10.2272 15.975 10.2297 15.9811 10.2347C16.0902 10.3047 16.1602 10.3748 16.1932 10.4423C16.2261 10.5098 16.2323 10.5924 16.2117 10.6949C16.1829 10.8425 16.1232 10.9576 16.0326 11.0451C15.942 11.1301 15.8329 11.1752 15.7074 11.1752C15.6024 11.1752 15.52 11.1452 15.4665 11.0851C15.4109 11.0176 15.3842 10.9325 15.3842 10.8175ZM15.1742 9.79452L14.9128 11.1276H14.711L14.9745 9.79452H14.6452L14.6884 9.58192H15.5468L15.5056 9.79452H15.1742ZM13.1177 11.1276L13.4348 9.51932L14.0358 10.4648C14.0523 10.4923 14.0688 10.5198 14.0832 10.5499C14.0997 10.5799 14.1161 10.6149 14.1326 10.6524L14.3446 9.57942H14.5319L14.2149 11.1852L13.5994 10.2222C13.583 10.1972 13.5686 10.1697 13.5541 10.1396C13.5397 10.1096 13.5274 10.0796 13.515 10.0496L13.303 11.1251H13.1177V11.1276ZM12.1935 11.1276L12.4981 9.58192H13.1898L13.1486 9.79452H12.6587L12.5825 10.1822H13.0725L13.0292 10.4023H12.5393L12.4405 10.9025H12.9304L12.8851 11.1276H12.1935ZM11.8579 10.3648C11.8579 10.3523 11.86 10.3197 11.8662 10.2647C11.8703 10.2197 11.8744 10.1822 11.8765 10.1522C11.8641 10.1872 11.8497 10.2222 11.8332 10.2572C11.8168 10.2922 11.7982 10.3272 11.7776 10.3648L11.2898 11.1877L11.1313 10.3472C11.1251 10.3122 11.1189 10.2797 11.1169 10.2472C11.1127 10.2147 11.1107 10.1822 11.1107 10.1522C11.1045 10.1847 11.0942 10.2172 11.0839 10.2547C11.0736 10.2897 11.0613 10.3272 11.0448 10.3673L10.7607 11.1276H10.5755L11.1869 9.51432L11.3598 10.4898C11.3618 10.5048 11.3659 10.5323 11.3701 10.5674C11.3742 10.6024 11.3804 10.6474 11.3865 10.6999C11.4071 10.6549 11.4359 10.5999 11.475 10.5298C11.4853 10.5123 11.4936 10.4973 11.4977 10.4873L12.0473 9.51182L12.0288 11.1251H11.8456L11.8579 10.3648ZM9.9353 11.1276L10.0753 10.4198L9.8221 9.58192H10.0341L10.1905 10.1071C10.1947 10.1196 10.1988 10.1396 10.2029 10.1597C10.207 10.1822 10.2132 10.2047 10.2173 10.2297C10.2296 10.2047 10.2441 10.1822 10.2564 10.1597C10.2688 10.1371 10.2832 10.1171 10.2955 10.0996L10.664 9.58192H10.8657L10.2729 10.4198L10.1329 11.1276H9.9353ZM9.433 11.1276L9.3712 10.7299H8.8793L8.6569 11.1276H8.4449L9.363 9.51932L9.6471 11.1276H9.433ZM8.9945 10.5198H9.3404L9.2827 10.1672C9.2807 10.1446 9.2766 10.1196 9.2745 10.0896C9.2724 10.0596 9.2704 10.0271 9.2704 9.99212C9.258 10.0246 9.2436 10.0571 9.2292 10.0871C9.2169 10.1171 9.2024 10.1421 9.1901 10.1672L8.9945 10.5198ZM8.1114 10.4348L7.97557 11.1301H7.78619L8.0908 9.58442H8.3955C8.4861 9.58442 8.552 9.58942 8.5911 9.60192C8.6302 9.61442 8.6652 9.63442 8.6899 9.66192C8.7208 9.69692 8.7434 9.74692 8.7516 9.80702C8.7619 9.86702 8.7599 9.93452 8.7455 10.0071C8.731 10.0796 8.7063 10.1471 8.6734 10.2097C8.6384 10.2722 8.5993 10.3197 8.554 10.3548C8.517 10.3823 8.4758 10.4023 8.4305 10.4148C8.3852 10.4273 8.3173 10.4323 8.2267 10.4323H8.1114V10.4348ZM8.1629 10.2272H8.2144C8.3255 10.2272 8.4037 10.2122 8.447 10.1822C8.4902 10.1522 8.519 10.0996 8.5355 10.0221C8.552 9.93952 8.5437 9.88202 8.5108 9.84702C8.4778 9.81202 8.4079 9.79702 8.3008 9.79702H8.2494L8.1629 10.2272ZM5.97675 11.1276L6.28141 9.58192H6.55314C6.73017 9.58192 6.85162 9.59192 6.91955 9.61442C6.98748 9.63692 7.04306 9.67442 7.08629 9.72692C7.14393 9.79452 7.18098 9.88202 7.19745 9.98962C7.21392 10.0971 7.20774 10.2197 7.18098 10.3573C7.15422 10.4948 7.11099 10.6174 7.05336 10.7224C6.99572 10.8275 6.92367 10.915 6.83927 10.9851C6.77546 11.0376 6.70547 11.0751 6.63136 11.0976C6.55725 11.1201 6.44815 11.1301 6.302 11.1301H5.97675V11.1276ZM6.22378 10.9H6.39257C6.48521 10.9 6.55725 10.8925 6.60666 10.8775C6.65606 10.8625 6.70135 10.835 6.74458 10.8C6.80222 10.75 6.84956 10.6874 6.88662 10.6124C6.92573 10.5373 6.95455 10.4523 6.97307 10.3523C6.9916 10.2547 6.99778 10.1672 6.98954 10.0921C6.98131 10.0171 6.95866 9.95462 6.92161 9.90452C6.89279 9.86702 6.8578 9.84202 6.81045 9.82702C6.76516 9.81202 6.689 9.80452 6.58607 9.80452H6.43992L6.22378 10.9ZM5.05248 11.1276L5.35714 9.58192H6.0488L6.00763 9.79452H5.5177L5.44154 10.1822H5.93147L5.88824 10.4023H5.39831L5.2995 10.9025H5.78943L5.74414 11.1276H5.05248ZM4.56049 11.1276L4.86516 9.58192H5.06689L4.76223 11.1276H4.56049ZM3.64651 11.1276L3.95117 9.58192H4.64284L4.60167 9.79452H4.11174L4.03557 10.1797H4.5255L4.48227 10.3998H3.99234L3.84825 11.1276H3.64651ZM3.15659 11.1276L3.46125 9.58192H3.66298L3.35832 11.1276H3.15659ZM1.75886 11.1276L2.07587 9.51932L2.67695 10.4648C2.69342 10.4923 2.70989 10.5198 2.7243 10.5499C2.74077 10.5799 2.75724 10.6149 2.7737 10.6524L2.98573 9.57942H3.17306L2.85604 11.1852L2.24261 10.2222C2.22614 10.1972 2.21173 10.1697 2.19732 10.1396C2.18291 10.1096 2.17056 10.0796 2.15821 10.0496L1.94412 11.1276H1.75886Z" fill="#66686C"/>
</g>
<defs>
<clipPath id="clip0_15_189">
<rect width="26" height="8" fill="white"/>
</clipPath>
</defs>
</svg>
