<svg width="465" height="83" viewBox="0 0 465 83" fill="none" xmlns="http://www.w3.org/2000/svg">
<path fill-rule="evenodd" clip-rule="evenodd" d="M52.0514 30.2879L45.1936 36.042L38.1409 41.96V39.24V30.2879L1.18652 61.2967H11.8548L31.2835 44.9941V47.7142V55.8104L31.2808 56.6683L31.2835 56.6663L37.5128 51.4393L38.1409 50.9121L45.1936 44.9941V50.3244V55.8104H52.0514H53.8802H54.0774H58.4539C62.7888 55.8104 66.0341 55.025 68.1897 53.4626C70.345 51.9001 71.4269 49.5442 71.4269 46.3951C71.4269 44.2395 70.8659 42.4526 69.7359 41.0346C68.6144 39.6161 66.8994 38.5505 64.6079 37.8293C66.0259 37.188 67.116 36.3227 67.8609 35.2249C68.6063 34.1271 68.9747 32.5533 68.9747 31.1031C68.9747 28.3147 67.8761 26.5166 65.6735 25.0966C63.4767 23.68 60.2166 22.9731 55.8976 22.9731H53.8802H31.6239L25.0394 28.4591H53.8802H54.0851H56.2982C58.5055 28.4591 58.7594 28.6303 59.4903 29.2452C60.2256 29.8643 60.7908 31.0192 60.7908 32.2855C60.7908 33.4314 60.4981 34.4613 59.811 35.0727C58.8001 35.9714 58.3401 36.1115 56.9333 36.1115H53.8802V41.5978H56.7629C58.9799 41.5978 59.7469 41.6518 61.0035 42.5555C61.9565 43.2407 62.6735 44.7135 62.6735 46.1234C62.6735 47.267 62.2442 48.2938 61.2283 49.1936C59.8339 50.4288 58.9426 50.3244 56.811 50.3244H54.0774H53.8802H52.0514V39.24V30.2879V30.2879Z" fill="url(#paint0_radial)"/>
<path d="M6.68079 46.6812C6.74601 47.0469 6.75106 47.406 6.69593 47.7577C6.64081 48.1098 6.51426 48.4332 6.31628 48.7282C6.1183 49.0228 5.83958 49.279 5.4805 49.4964C5.12104 49.7142 4.66724 49.8718 4.11833 49.9696L3.94714 50.0003C3.42114 50.0942 2.95764 50.1004 2.55702 50.0185C2.15602 49.937 1.81286 49.7918 1.52793 49.583C1.24299 49.3745 1.01551 49.1144 0.844707 48.8027C0.673902 48.491 0.555892 48.1525 0.490675 47.7868C0.425459 47.4208 0.41886 47.0625 0.470878 46.7107C0.523284 46.3594 0.647117 46.0365 0.84199 45.7422C1.03725 45.448 1.3086 45.1929 1.65642 44.9775C2.00424 44.762 2.44134 44.6075 2.96696 44.5136L3.13854 44.4829C3.68744 44.3847 4.16764 44.3758 4.58028 44.4553C4.99254 44.5349 5.34269 44.679 5.63034 44.887C5.91838 45.0951 6.14897 45.3548 6.32249 45.6657C6.49601 45.9771 6.61558 46.3156 6.68079 46.6812V46.6812ZM5.77204 46.8435C5.73399 46.6319 5.66024 46.4328 5.55038 46.2461C5.44013 46.0594 5.28718 45.9037 5.09076 45.7795C4.89472 45.6553 4.65094 45.5706 4.35979 45.5252C4.06865 45.4802 3.72587 45.4926 3.33147 45.5629L3.15989 45.5935C2.78295 45.6611 2.4724 45.7651 2.22939 45.906C1.98599 46.0466 1.79694 46.2088 1.66146 46.392C1.52598 46.5757 1.43942 46.774 1.4006 46.9871C1.36217 47.2006 1.36178 47.413 1.39943 47.6246C1.43825 47.8416 1.51279 48.0438 1.62264 48.2305C1.73289 48.4172 1.88312 48.5733 2.07334 48.6983C2.26394 48.8237 2.49724 48.9087 2.77364 48.9537C3.05003 48.9988 3.37689 48.9875 3.75421 48.9203L3.9254 48.8897C4.31981 48.819 4.64628 48.7138 4.90404 48.5733C5.16218 48.4328 5.36172 48.2705 5.50302 48.0861C5.64393 47.9013 5.7336 47.7026 5.77242 47.4895C5.81085 47.276 5.81085 47.0605 5.77204 46.8435V46.8435ZM1.45262 42.5742L2.54965 42.5466L2.57837 43.6782L1.48134 43.7061L0.107529 42.7826L0.0943308 42.2601L1.45262 42.5742ZM5.25574 41.2469L1.14478 37.6503L0.903324 40.8285L0 40.7601L0.336563 36.3313L1.15293 36.393L5.26428 39.99L5.51893 36.6379L6.42226 36.7062L6.07211 41.309L5.25574 41.2469V41.2469ZM0.618003 34.2051L1.16613 31.829C1.3218 31.1559 1.57994 30.6955 1.94096 30.4482C2.30159 30.2005 2.72278 30.1326 3.20375 30.2436C3.50887 30.3139 3.75227 30.4536 3.93356 30.6625C4.11484 30.8709 4.22159 31.1248 4.25381 31.4245C4.41414 31.0918 4.63812 30.8504 4.92616 30.6994C5.2142 30.5484 5.55077 30.5169 5.93546 30.6058C6.1843 30.6633 6.40285 30.7556 6.59112 30.8822C6.77939 31.0091 6.92768 31.173 7.03638 31.374C7.14507 31.5747 7.21029 31.8146 7.23203 32.0937C7.25415 32.3729 7.22271 32.6966 7.1377 33.0642L6.55813 35.5762L0.618003 34.2051V34.2051ZM6.22971 32.9711C6.33181 32.5297 6.33103 32.209 6.22816 32.0095C6.12529 31.81 5.92654 31.6764 5.63267 31.6085C5.49098 31.5759 5.35939 31.5662 5.23711 31.5798C5.11483 31.5934 5.00497 31.6365 4.90753 31.7094C4.81048 31.7824 4.72469 31.8892 4.65055 32.0297C4.57601 32.1706 4.51351 32.3515 4.46266 32.572L4.14551 33.9466L5.91062 34.3542L6.22971 32.9711ZM3.61485 32.5281C3.70607 32.1322 3.69637 31.8395 3.58496 31.65C3.47394 31.4602 3.29381 31.3368 3.04498 31.2793C2.79033 31.2207 2.57915 31.2521 2.41068 31.3744C2.24259 31.4963 2.11216 31.7583 2.01938 32.1601L1.73561 33.3903L3.33069 33.7587L3.61485 32.5281V32.5281ZM2.3474 27.6458L3.84893 23.8381L4.69131 24.1703L3.57331 27.0061L5.06397 27.5938L6.08647 25.0011L6.92885 25.3334L5.90674 27.9261L7.55966 28.5775L8.67766 25.7421L9.52042 26.074L8.01889 29.8822L2.3474 27.6458V27.6458ZM4.85435 21.9266L5.3753 21.0206L7.897 22.4708L6.66022 18.7861L7.2856 17.6988L8.30732 20.9185L12.6574 20.5866L12.0235 21.6886L8.58682 21.8827L8.96181 23.0826L10.6605 24.0593L10.1396 24.9654L4.85435 21.9266V21.9266ZM8.673 16.0463L9.31856 15.2244L14.112 18.9915L13.4664 19.8129L8.673 16.0463V16.0463ZM16.6674 16.3238C16.3817 16.5963 16.1038 16.8009 15.8332 16.9383C15.563 17.0757 15.3037 17.1545 15.0545 17.1755C14.8057 17.1961 14.5704 17.1658 14.3484 17.0847C14.1267 17.0035 13.919 16.8781 13.7261 16.7093L14.4823 15.9884C14.5832 16.0606 14.6877 16.1134 14.796 16.1468C14.9039 16.1802 15.0219 16.1879 15.1496 16.1705C15.2773 16.153 15.4128 16.1037 15.5564 16.023C15.7001 15.9422 15.8581 15.8199 16.0304 15.6557C16.2067 15.4873 16.3421 15.3285 16.4361 15.1786C16.53 15.0288 16.5906 14.8906 16.6181 14.7641C16.6461 14.6375 16.6426 14.5203 16.608 14.4127C16.5739 14.3052 16.5164 14.2093 16.4365 14.1251C16.24 13.9193 15.9963 13.8549 15.7047 13.9322C15.4136 14.0094 15.0262 14.1985 14.5425 14.4989C14.2676 14.6651 14.0087 14.7974 13.7661 14.896C13.5235 14.995 13.2944 15.0494 13.0786 15.0587C12.8628 15.0676 12.6551 15.0288 12.4559 14.9418C12.2568 14.8553 12.0611 14.7109 11.869 14.509C11.7125 14.3452 11.5992 14.1565 11.5282 13.9434C11.4571 13.7303 11.4369 13.5048 11.4672 13.2676C11.4975 13.03 11.5825 12.7847 11.7219 12.5312C11.8616 12.2781 12.0635 12.025 12.3282 11.7726C12.5848 11.5281 12.8375 11.3433 13.0867 11.2179C13.3364 11.0925 13.5782 11.0203 13.8127 11.0013C14.0475 10.9823 14.2715 11.011 14.4854 11.0879C14.6989 11.1651 14.8984 11.2839 15.0836 11.4442L14.327 12.1655C14.1411 12.0378 13.933 11.9896 13.7024 12.0211C13.4714 12.0525 13.2257 12.1923 12.9652 12.4407C12.6628 12.7291 12.4955 12.9892 12.4633 13.2206C12.4311 13.4516 12.485 13.641 12.6252 13.7877C12.8173 13.9896 13.046 14.0606 13.31 14.0013C13.5743 13.9419 13.9148 13.7815 14.3317 13.5207C14.6403 13.3308 14.926 13.1787 15.1896 13.0638C15.4532 12.9489 15.7012 12.8829 15.9338 12.8658C16.1659 12.8487 16.3848 12.8829 16.5902 12.9679C16.7955 13.0529 16.9966 13.1981 17.1927 13.4042C17.365 13.5847 17.4896 13.787 17.5665 14.0106C17.6434 14.2342 17.6632 14.4717 17.6263 14.7233C17.5898 14.9752 17.4931 15.2357 17.3367 15.5051C17.1802 15.7745 16.9574 16.0474 16.6674 16.3238V16.3238ZM17.1406 8.93767L15.4726 10.1236L14.9477 9.38565L19.1356 6.40782L19.6604 7.14578L17.9923 8.33209L21.0004 12.5622L20.1487 13.1678L17.1406 8.93767V8.93767ZM25.2803 10.0642C24.9495 10.2338 24.6079 10.3437 24.255 10.3938C23.9026 10.4439 23.5563 10.4175 23.2162 10.3142C22.8766 10.2109 22.5501 10.0196 22.2368 9.73929C21.924 9.4594 21.6402 9.07121 21.3863 8.5751L21.3067 8.42021C21.0633 7.94468 20.922 7.5033 20.8832 7.09609C20.844 6.68887 20.8828 6.31854 20.9989 5.98508C21.115 5.65162 21.2974 5.35737 21.5455 5.10311C21.7935 4.84884 22.0827 4.63728 22.4139 4.46763C22.7442 4.29838 23.0854 4.18736 23.4367 4.13457C23.7881 4.08177 24.1332 4.10584 24.4717 4.20638C24.8102 4.30692 25.1331 4.49209 25.441 4.7615C25.7488 5.03129 26.0244 5.40396 26.2678 5.8791L26.3474 6.03438C26.6013 6.53049 26.7504 6.98739 26.795 7.40509C26.8392 7.82239 26.8039 8.19933 26.689 8.5355C26.5741 8.87168 26.3932 9.16826 26.1463 9.42485C25.8998 9.68184 25.611 9.89495 25.2803 10.0642V10.0642ZM24.8595 9.24279C25.0505 9.14458 25.2193 9.0157 25.3657 8.85615C25.5124 8.69622 25.6161 8.50445 25.6778 8.28046C25.7391 8.05647 25.7488 7.79872 25.7073 7.50718C25.6654 7.21526 25.5532 6.89112 25.3707 6.53476L25.2911 6.37948C25.1164 6.03865 24.9262 5.77235 24.7205 5.58097C24.5147 5.3892 24.3043 5.25567 24.0897 5.17997C23.8746 5.10388 23.6596 5.07904 23.4441 5.10427C23.2291 5.12989 23.0256 5.19161 22.8347 5.28944C22.6382 5.38998 22.4666 5.52041 22.3203 5.67996C22.1739 5.8399 22.0684 6.02895 22.0043 6.24789C21.9403 6.46644 21.9271 6.71488 21.9651 6.99205C22.0028 7.26961 22.1087 7.579 22.2834 7.91983L22.363 8.07511C22.5454 8.43147 22.7419 8.71291 22.9515 8.91826C23.1611 9.124 23.375 9.26764 23.5924 9.34838C23.8102 9.42951 24.0264 9.45707 24.2418 9.43184C24.4569 9.40622 24.663 9.34333 24.8595 9.24279V9.24279ZM27.0236 2.40789L27.9957 2.13188L32.067 5.50217L30.8776 1.31357L31.8826 1.02786L33.548 6.89229L32.5763 7.16829L28.505 3.798L29.6944 7.98699L28.689 8.27231L27.0236 2.40789V2.40789ZM37.5413 0.0597087L39.8484 0.0014798C40.2315 -0.00822501 40.5677 0.0298179 40.8573 0.11522C41.1472 0.201011 41.3899 0.325621 41.5855 0.48905C41.7816 0.652479 41.9318 0.848904 42.0362 1.07871C42.1406 1.30852 42.1965 1.5624 42.2035 1.84112C42.214 2.25882 42.11 2.62333 41.8914 2.9335C41.6729 3.24405 41.3386 3.47192 40.8895 3.61672L42.4838 6.03322L41.3344 6.06233L39.926 3.76307L38.6811 3.79451L38.7401 6.12793L37.6954 6.15433L37.5413 0.0597087V0.0597087ZM39.7474 2.89623C40.2812 2.88303 40.6519 2.78637 40.8596 2.60703C41.0669 2.4273 41.1667 2.18079 41.1589 1.86752C41.1507 1.55425 41.0386 1.31279 40.8223 1.14432C40.6061 0.975455 40.2311 0.897816 39.697 0.911403L38.6089 0.938965L38.6589 2.92379L39.7474 2.89623V2.89623ZM44.7085 0.064367L48.769 0.580663L48.6549 1.47894L45.6313 1.09463L45.429 2.68428L48.1937 3.03559L48.0796 3.93426L45.3149 3.58294L45.0909 5.34534L48.1149 5.72965L48.0008 6.62831L43.9399 6.11202L44.7085 0.064367V0.064367ZM51.1809 7.55687C50.8012 7.44895 50.4837 7.31347 50.2282 7.15043C49.9724 6.98739 49.7725 6.80378 49.6285 6.59998C49.4841 6.39618 49.3905 6.17801 49.3482 5.94548C49.3055 5.71296 49.3078 5.47072 49.3552 5.21879L50.3606 5.50411C50.3497 5.62794 50.3571 5.74479 50.3831 5.85465C50.4095 5.96489 50.4623 6.07048 50.5423 6.17141C50.6223 6.27273 50.7333 6.36434 50.8757 6.44742C51.0186 6.5301 51.2042 6.60386 51.4332 6.66869C51.6677 6.73546 51.8734 6.77117 52.05 6.77622C52.2267 6.78087 52.3765 6.76341 52.4996 6.72265C52.623 6.68227 52.722 6.61977 52.7973 6.53554C52.8726 6.4513 52.9262 6.35347 52.9576 6.24167C53.0353 5.968 52.9669 5.72538 52.7527 5.51343C52.538 5.30186 52.1785 5.0639 51.6743 4.79993C51.3917 4.64737 51.1459 4.49131 50.9379 4.33254C50.7294 4.17377 50.5664 4.00375 50.4487 3.82285C50.3311 3.64156 50.2593 3.44281 50.2329 3.22736C50.2069 3.01152 50.2317 2.76968 50.3078 2.50144C50.3695 2.28366 50.4744 2.09034 50.6223 1.92109C50.7698 1.75145 50.9538 1.61985 51.1735 1.52514C51.3936 1.4308 51.6482 1.37918 51.9371 1.37102C52.2263 1.36248 52.5469 1.40829 52.8986 1.50805C53.2394 1.60471 53.5271 1.72894 53.7616 1.87994C53.9964 2.03095 54.1816 2.20292 54.3171 2.39507C54.4525 2.58762 54.5414 2.7953 54.5838 3.01851C54.6257 3.24172 54.6249 3.47386 54.5807 3.71493L53.5752 3.42961C53.5908 3.20446 53.5263 3.00066 53.3823 2.81782C53.2379 2.63498 52.9929 2.49445 52.6463 2.39624C52.2445 2.28211 51.9355 2.26969 51.7197 2.35936C51.5042 2.44903 51.3687 2.5915 51.3132 2.78715C51.2371 3.05539 51.2915 3.28792 51.4771 3.48551C51.6622 3.6831 51.9735 3.89505 52.4099 4.12137C52.7301 4.29101 53.0065 4.45987 53.2391 4.62873C53.472 4.79721 53.6548 4.97733 53.7876 5.1691C53.9199 5.36048 54.0019 5.56661 54.0329 5.78671C54.064 6.00682 54.0407 6.25371 53.963 6.527C53.8947 6.76729 53.7841 6.9773 53.6304 7.15703C53.4766 7.33677 53.2821 7.47457 53.0465 7.57046C52.8109 7.66673 52.5376 7.71564 52.2263 7.71797C51.9149 7.71991 51.5663 7.66634 51.1809 7.55687ZM57.14 3.07208L59.1637 3.98705C59.9098 4.32439 60.3876 4.73316 60.5972 5.21335C60.8073 5.69355 60.7902 6.20363 60.546 6.74322C60.3022 7.28281 59.9307 7.63257 59.4315 7.7925C58.9323 7.95244 58.3096 7.86354 57.5635 7.5262L56.4925 7.04213L55.581 9.05762L54.6288 8.62712L57.14 3.07208V3.07208ZM57.8574 6.66519C58.1062 6.77777 58.324 6.8523 58.5111 6.88918C58.6986 6.92606 58.8597 6.92878 58.9948 6.89733C59.1303 6.86628 59.246 6.80067 59.3418 6.70091C59.4381 6.60075 59.522 6.47148 59.5938 6.31271C59.6656 6.15394 59.7067 6.00682 59.7168 5.87134C59.7273 5.73586 59.7001 5.60582 59.6353 5.48082C59.5709 5.35621 59.4626 5.23548 59.3112 5.11941C59.1602 5.00334 58.9599 4.88882 58.7114 4.77664L57.7192 4.32789L56.8656 6.21683L57.8574 6.66519V6.66519ZM61.683 12.6399C61.3756 12.4209 61.1267 12.1799 60.9365 11.9163C60.7463 11.6531 60.624 11.3736 60.5701 11.0789C60.5161 10.7839 60.5336 10.4741 60.6225 10.1488C60.711 9.82353 60.8799 9.48619 61.1291 9.13604L63.2486 6.15511L64.1007 6.76069L62.0161 9.69193C61.683 10.1605 61.5374 10.5751 61.5798 10.9365C61.6221 11.2979 61.8348 11.615 62.218 11.8875C62.6061 12.1632 62.9765 12.261 63.3293 12.1806C63.6822 12.1003 64.0234 11.8282 64.353 11.3647L66.4427 8.42603L67.2943 9.032L65.1744 12.0129C64.9256 12.3631 64.662 12.6333 64.3841 12.8239C64.1061 13.0145 63.8189 13.1325 63.5227 13.1787C63.2265 13.2245 62.9229 13.2008 62.6116 13.1076C62.3003 13.0145 61.9905 12.8584 61.683 12.6399V12.6399ZM68.8386 10.4054L70.6037 12.0882C71.1037 12.5649 71.368 13.0218 71.3972 13.4586C71.4259 13.8953 71.2702 14.292 70.9294 14.6491C70.7132 14.8762 70.469 15.0144 70.1973 15.0641C69.9251 15.1138 69.6522 15.0762 69.3782 14.9512C69.5827 15.2582 69.6763 15.5746 69.6596 15.8991C69.6425 16.224 69.4981 16.5292 69.2256 16.8153C69.0494 17 68.8588 17.141 68.6534 17.2384C68.4484 17.3358 68.2318 17.3797 68.0036 17.3708C67.7757 17.3618 67.5358 17.2958 67.2843 17.1724C67.0331 17.0493 66.7707 16.8572 66.4978 16.5967L64.6317 14.818L68.8386 10.4054V10.4054ZM67.0409 15.863C67.3685 16.1755 67.6445 16.3386 67.8685 16.3518C68.0929 16.3646 68.3091 16.2621 68.5172 16.0435C68.6173 15.9383 68.693 15.83 68.7435 15.7178C68.7943 15.6057 68.813 15.4892 68.7998 15.3685C68.7866 15.2477 68.7384 15.1192 68.6553 14.9838C68.5719 14.8483 68.4484 14.7023 68.2842 14.5459L67.2633 13.5723L66.0133 14.8836L67.0409 15.863ZM68.7543 13.8386C69.0482 14.1193 69.3052 14.2598 69.5249 14.261C69.7446 14.2617 69.9426 14.1697 70.1188 13.985C70.2993 13.7959 70.3797 13.5979 70.3607 13.391C70.3413 13.1837 70.1825 12.938 69.884 12.6538L68.9702 11.7823L67.8401 12.9675L68.7543 13.8386V13.8386ZM73.7601 15.5622L74.3657 16.4139L70.1355 19.422L71.8517 21.835L71.1134 22.3602L68.792 19.0951L73.7601 15.5622ZM77.0155 20.4142L77.5364 21.3202L72.2512 24.359L71.7306 23.453L77.0155 20.4142V20.4142ZM78.6637 23.262L79.0469 24.234L76.3408 25.3012L79.9925 26.6323L80.4525 27.7992L77.2985 26.5899L74.8451 30.197L74.3785 29.0142L76.3703 26.2068L75.1983 25.7515L73.3754 26.4704L72.9922 25.498L78.6637 23.262V23.262ZM77.3043 34.3224L76.748 31.9121L75.2919 31.7211L75.0566 30.7025L81.5158 31.5806L81.751 32.5988L76.3299 36.2187L76.0791 35.1325L77.3043 34.3224V34.3224ZM77.7072 32.0394L78.1106 33.7874L80.3547 32.3577L77.7072 32.0394V32.0394ZM76.3866 38.8778C76.3563 38.4842 76.3738 38.1395 76.4386 37.8433C76.5034 37.5471 76.6067 37.2963 76.7484 37.0906C76.8901 36.8844 77.0624 36.7214 77.2659 36.601C77.4693 36.4811 77.6975 36.3996 77.9502 36.3569L78.0294 37.3992C77.9099 37.4314 77.8027 37.4788 77.7084 37.5413C77.6141 37.6037 77.5333 37.6903 77.4662 37.8002C77.3986 37.91 77.3509 38.0463 77.3225 38.2082C77.2942 38.3708 77.2888 38.5703 77.307 38.8079C77.3256 39.0509 77.3629 39.2563 77.4192 39.424C77.4759 39.5913 77.5442 39.726 77.6245 39.8273C77.7053 39.929 77.7981 40.0005 77.9029 40.042C78.0081 40.0835 78.1183 40.0998 78.2344 40.0913C78.5178 40.0696 78.722 39.9216 78.847 39.6472C78.9716 39.3727 79.0706 38.9531 79.1443 38.3887C79.1901 38.0707 79.2511 37.7866 79.3283 37.5362C79.4052 37.2858 79.5084 37.0743 79.6381 36.9011C79.7678 36.7284 79.9292 36.5925 80.1226 36.4931C80.3159 36.3941 80.5515 36.334 80.8295 36.313C81.055 36.2955 81.2728 36.327 81.4828 36.4073C81.6928 36.4873 81.8799 36.6142 82.0445 36.7882C82.2091 36.9621 82.3454 37.1829 82.4533 37.4516C82.5608 37.7198 82.6287 38.0366 82.6563 38.4011C82.6831 38.7544 82.6664 39.0672 82.6054 39.3397C82.5445 39.6119 82.4474 39.8452 82.3135 40.0389C82.1796 40.2322 82.0154 40.3875 81.8205 40.5043C81.6256 40.6208 81.4075 40.7 81.166 40.7415L81.0868 39.6996C81.3034 39.6367 81.4723 39.5059 81.5942 39.3071C81.7157 39.1088 81.7631 38.83 81.7359 38.4714C81.7041 38.0544 81.6089 37.7602 81.4502 37.589C81.2918 37.4174 81.1113 37.3394 80.9086 37.3549C80.6307 37.3759 80.4312 37.5079 80.3097 37.7497C80.1882 37.9919 80.0969 38.3568 80.0348 38.8452C79.9863 39.2039 79.9234 39.5218 79.8454 39.7982C79.7674 40.075 79.6614 40.3087 79.5275 40.4993C79.3935 40.6903 79.2286 40.8382 79.0329 40.9434C78.8369 41.0482 78.5974 41.1118 78.3136 41.1332C78.0648 41.1522 77.8291 41.1208 77.6075 41.0385C77.3858 40.9562 77.1894 40.8215 77.0178 40.6336C76.8462 40.4457 76.7057 40.2058 76.5962 39.9143C76.4867 39.6227 76.4169 39.2772 76.3866 38.8778V38.8778ZM82.6388 42.507L82.6124 43.552L76.5182 43.3979L76.5446 42.3529L82.6388 42.507Z" fill="#E4A216"/>
<path d="M14.3647 63.8607L15.1097 64.6425L13.8341 68.5419L17.7901 67.4538L18.511 68.21L14.0988 72.4169L13.3776 71.6603L16.4664 68.7159L13.18 69.6231L12.699 69.1184L13.7619 65.8793L10.6734 68.8238L9.95215 68.0676L14.3647 63.8607V63.8607ZM19.6461 74.729L17.6302 73.2954L16.414 74.1191L15.5623 73.5131L20.9764 69.8828L21.8281 70.4883L20.176 76.7941L19.2672 76.1482L19.6461 74.729ZM18.4322 72.7542L19.8941 73.7938L20.624 71.2348L18.4322 72.7542ZM24.2885 72.1149L26.3913 73.0655C26.7407 73.2232 27.0272 73.4037 27.2508 73.6067C27.4744 73.8097 27.6386 74.0275 27.7438 74.26C27.849 74.4922 27.8991 74.7344 27.8932 74.9867C27.8874 75.239 27.8273 75.4921 27.7123 75.746C27.54 76.1272 27.2881 76.4098 26.9561 76.5942C26.6242 76.7786 26.2244 76.8384 25.757 76.7736L26.1417 79.6431L25.0944 79.1695L24.8257 76.4867L23.6911 75.9735L22.7295 78.1004L21.7773 77.6699L24.2885 72.1149ZM25.0416 75.6284C25.5284 75.8485 25.9041 75.9226 26.1689 75.8512C26.434 75.7798 26.6308 75.6012 26.7601 75.3155C26.8894 75.0298 26.8933 74.7643 26.7718 74.5182C26.6503 74.2721 26.3463 74.0391 25.8595 73.819L24.8677 73.3707L24.0498 75.18L25.0416 75.6284V75.6284ZM29.7519 74.5026L30.7573 74.7883L29.9627 77.5864L33.2371 75.4925L34.4436 75.8349L31.5683 77.6078L32.946 81.7471L31.7228 81.3997L30.7007 78.1128L29.6273 78.7677L29.0924 80.6528L28.087 80.3675L29.7519 74.5026V74.5026ZM38.4703 81.0181L36.0041 80.8306L35.3877 82.1636L34.3454 82.0844L37.1089 76.1804L38.1508 76.2596L39.9901 82.5134L38.8787 82.4291L38.4703 81.0181V81.0181ZM36.4117 79.9532L38.2005 80.0891L37.5049 77.5208L36.4117 79.9532V79.9532ZM41.3961 81.7956L44.3301 77.1878L41.1516 77.4296L41.0829 76.5263L45.5118 76.1897L45.5739 77.0061L42.6403 81.6135L45.9923 81.3585L46.0611 82.2618L41.4582 82.612L41.3961 81.7956V81.7956ZM47.0808 75.9448L48.1095 75.7608L49.1813 81.7626L48.1526 81.9462L47.0808 75.9448V75.9448ZM52.5155 78.5534L49.0878 75.7596L50.259 75.3633L52.6918 77.3904L53.2783 74.3415L54.3672 73.9731L53.5054 78.2184L54.2589 80.4459L53.269 80.7809L52.5155 78.5534ZM57.1459 72.7344L59.2596 71.519C59.8586 71.1747 60.3718 71.0504 60.7984 71.1463C61.2254 71.2426 61.562 71.5046 61.8081 71.9324C61.9641 72.2042 62.0278 72.4774 61.9983 72.7523C61.9688 73.0271 61.8551 73.2783 61.6579 73.5054C62.0103 73.3967 62.3399 73.3963 62.6466 73.5046C62.9533 73.6129 63.2052 73.8381 63.402 74.1804C63.5293 74.4017 63.6105 74.6245 63.6458 74.8489C63.6811 75.0733 63.6617 75.2934 63.5887 75.5096C63.5154 75.7258 63.3841 75.937 63.1943 76.1431C63.0049 76.3493 62.7463 76.5465 62.4195 76.7344L60.1847 78.0197L57.1459 72.7344V72.7344ZM61.8698 76.0057C62.2623 75.7798 62.4967 75.5616 62.5728 75.3505C62.6489 75.1389 62.6116 74.9025 62.4614 74.6408C62.3888 74.5151 62.3061 74.4118 62.213 74.3314C62.1198 74.2511 62.0134 74.2002 61.8939 74.1785C61.7743 74.1568 61.6377 74.1669 61.4839 74.208C61.3306 74.2495 61.1555 74.3268 60.9591 74.4398L59.7359 75.1428L60.6392 76.7134L61.8698 76.0057V76.0057ZM60.4141 73.7888C60.7666 73.5861 60.9742 73.3796 61.0375 73.1692C61.1004 72.9588 61.0686 72.7426 60.9409 72.5213C60.8108 72.2946 60.6439 72.1615 60.4397 72.1215C60.2359 72.0811 59.9552 72.1638 59.5981 72.3691L58.503 72.9988L59.3194 74.418L60.4141 73.7888V73.7888ZM67.5677 71.3734L65.6228 72.9017L66.0689 74.3012L65.2471 74.9467L63.2952 68.7275L64.1167 68.0815L69.6985 71.4491L68.8219 72.1378L67.5677 71.3734V71.3734ZM65.3302 71.9798L66.7408 70.8711L64.4924 69.448L65.3302 71.9798V71.9798ZM66.1341 66.3455L66.7956 65.582L72.0486 66.1685L68.7571 63.3176L69.4415 62.5277L74.0493 66.5191L73.3879 67.2826L68.1348 66.6961L71.4263 69.5474L70.7419 70.3369L66.1341 66.3455ZM70.2687 61.5133L70.7897 60.6073L73.3114 62.0576L72.0746 58.3725L72.6996 57.2855L73.7217 60.5052L78.0714 60.1733L77.4379 61.2754L74.0008 61.4695L74.3758 62.6694L76.0745 63.6461L75.5536 64.5521L70.2687 61.5133V61.5133ZM73.3467 55.8578L73.7772 54.9055L79.3323 57.4167L78.9018 58.3694L73.3467 55.8578Z" fill="#E4A216"/>
<path fill-rule="evenodd" clip-rule="evenodd" d="M78.4571 48.4258C79.6345 48.4258 80.589 49.3804 80.589 50.5577C80.589 51.7351 79.6345 52.6897 78.4571 52.6897C77.2797 52.6897 76.3252 51.7351 76.3252 50.5577C76.3252 49.3804 77.2797 48.4258 78.4571 48.4258Z" fill="#E4A216"/>
<path d="M145.051 65.0972C145.301 69.1483 145.118 69.1483 141.867 69.2993C141.565 69.5981 141.565 70.7 141.867 70.9988C144.215 70.9506 148.72 70.8992 150.22 70.8992C151.72 70.8992 154.014 70.9506 155.672 70.9988C155.974 70.7 155.974 69.5981 155.672 69.2993C152.27 69.1483 152.112 68.9909 151.83 64.8466L150.336 43.7848C150.12 41.0831 150.371 40.4341 153.773 40.2349C154.072 39.9329 154.072 38.8342 153.773 38.5322L143.717 38.6318L134.211 60.8437H133.96L125.006 38.6318L114.751 38.5322C114.449 38.8342 114.449 39.9329 114.751 40.2349C118.202 40.4341 118.504 40.4823 118.153 44.2346L116.142 64.8466C115.85 67.8472 115.249 69.0487 112.399 69.2993C112.097 69.5981 112.097 70.7 112.399 70.9988C113.9 70.9506 115.5 70.8992 116.701 70.8992C117.903 70.8992 120.904 70.9506 122.404 70.9988C122.706 70.7 122.706 69.5981 122.404 69.2993C119.101 69.0487 118.835 67.5645 119.101 64.747L120.412 45.9855H120.621L130.458 70.6486C130.6 70.9988 131.159 71.2975 131.461 71.2975C131.759 71.2975 132.219 71.0983 132.408 70.6486L143.666 44.1864H143.766L145.051 65.0972V65.0972ZM170.647 68.4737C170.981 70.4976 172.334 71.4003 174.534 71.4003C177.294 71.4003 179.238 70.3498 181.088 68.5989C180.969 68.0143 180.764 67.6127 180.186 67.1983C179.537 67.6962 179.035 67.8986 178.084 67.8986C176.986 67.8986 176.684 66.9959 176.684 64.5446L176.786 57.342C176.786 50.1394 172.334 48.6873 168.221 48.6873C164.552 48.6873 158.923 50.7626 158.923 54.0652C158.923 55.498 159.534 56.5999 161.519 56.5999C163.286 56.5999 164.629 55.498 164.629 54.29C164.629 53.6315 164.279 52.7898 164.395 51.9224C164.469 51.373 164.829 50.7883 166.512 50.7883C168.623 50.7883 170.38 51.6878 170.38 58.0424L167.023 59.0929C161.76 60.7441 158.075 62.1962 158.075 66.1477C158.075 69.5981 159.977 71.4003 164.327 71.4003C165.78 71.4003 168.681 69.7972 170.332 68.4994L170.647 68.4737V68.4737ZM170.38 59.9924V66.5975C169.13 67.5966 167.881 68.3966 166.981 68.3966C164.829 68.3966 164.077 66.9477 164.077 65.396C164.077 63.5455 164.237 62.0035 167.781 60.8437L170.38 59.9924ZM193.596 57.4769C193.596 55.6907 194.145 54.9647 194.794 54.1904C195.205 53.6989 195.645 53.3391 196.378 53.3391C196.847 53.3391 197.371 53.7728 197.798 54.29C198.148 54.7173 198.996 55.1157 200.124 55.1157C201.573 55.1157 202.999 53.5897 202.999 51.4887C202.999 50.1876 201.499 48.6873 199.697 48.6873C197.946 48.6873 196.047 50.1876 193.743 53.4901H193.544C193.445 51.9898 193.194 49.5386 193.194 49.5386C193.152 49.1049 192.744 48.6873 192.044 48.6873C189.666 49.288 187.042 50.0141 183.739 50.3385C183.639 50.6373 183.739 51.5882 183.838 51.8902C186.566 52.1408 187.09 52.5906 187.09 55.4401V64.7952C187.09 68.9491 186.54 69.0487 183.488 69.2993C183.189 69.5981 183.189 70.7 183.488 70.9988C185.589 70.9506 187.675 70.8992 190.341 70.8992C193.011 70.8992 195.045 70.9506 197.197 70.9988C197.496 70.7 197.496 69.5981 197.197 69.2993C194.145 69.0969 193.596 68.9491 193.596 64.7952V57.4769V57.4769ZM207.603 64.5446C207.603 68.6985 206.803 69.1483 203.751 69.2993C203.449 69.5981 203.449 70.7 203.751 70.9988C205.852 70.9506 208.085 70.8992 210.855 70.8992C213.039 70.8992 215.256 70.9506 216.458 70.9988C216.757 70.7 216.757 69.5981 216.458 69.2993C214.932 69.1226 214.106 68.6985 214.106 64.5446V60.4422C215.507 60.4422 217.033 60.6189 217.556 61.3931C218.71 63.0958 220.111 65.1711 220.959 66.9959C221.611 68.3966 221.759 68.8495 221.759 69.5981V70.8992L221.862 70.9988C221.862 70.9988 224.111 70.8992 225.862 70.8992C227.914 70.8992 230.716 70.9506 232.567 70.9988C232.865 70.7 232.865 69.5981 232.567 69.2993C230.623 69.1226 229.53 69.2415 228.014 66.9959L222.212 58.4439C221.968 58.0938 221.842 57.6761 222.061 57.4416L224.538 54.7173C226.154 52.9311 227.513 51.2124 231.317 50.7883C231.616 50.4895 231.616 49.3876 231.317 49.0888C230.215 49.137 227.063 49.1884 225.762 49.1884C223.911 49.1884 221.56 49.137 219.709 49.0888C219.41 49.3876 219.41 50.4895 219.709 50.7883C222.411 50.9907 223.185 51.463 221.759 53.4387C220.66 54.9583 219.558 56.1662 218.559 57.0336C217.916 57.5829 215.606 58.4439 214.106 58.4439V41.7352C214.106 38.4841 214.257 36.6304 214.257 36.6304C214.257 36.1806 213.907 35.9814 213.457 35.9814C211.603 36.5822 207.603 37.1316 204.05 37.2825C203.899 37.8833 203.95 38.4327 204.201 38.8824C207.353 39.133 207.603 39.2005 207.603 42.6347V64.5446V64.5446ZM248.042 68.4737C248.373 70.4976 249.726 71.4003 251.927 71.4003C254.686 71.4003 256.63 70.3498 258.481 68.5989C258.365 68.0143 258.156 67.6127 257.581 67.1983C256.929 67.6962 256.431 67.8986 255.48 67.8986C254.378 67.8986 254.079 66.9959 254.079 64.5446L254.179 57.342C254.179 50.1394 249.726 48.6873 245.617 48.6873C241.948 48.6873 236.319 50.7626 236.319 54.0652C236.319 55.498 236.926 56.5999 238.912 56.5999C240.679 56.5999 242.022 55.498 242.022 54.29C242.022 53.6315 241.672 52.7898 241.787 51.9224C241.864 51.373 242.221 50.7883 243.904 50.7883C246.015 50.7883 247.776 51.6878 247.776 58.0424L244.415 59.0929C239.153 60.7441 235.468 62.1962 235.468 66.1477C235.468 69.5981 237.37 71.4003 241.72 71.4003C243.172 71.4003 246.073 69.7972 247.724 68.4994L248.042 68.4737V68.4737ZM247.776 59.9924V66.5975C246.523 67.5966 245.273 68.3966 244.373 68.3966C242.221 68.3966 241.472 66.9477 241.472 65.396C241.472 63.5455 241.63 62.0035 245.173 60.8437L247.776 59.9924ZM262.632 48.5877C262.516 48.5877 262.333 48.7708 262.333 48.8864C262.281 51.1385 261.983 53.3809 261.581 55.8257C262.024 56.0088 263.149 56.1084 263.734 55.9734C264.733 52.3304 266.285 51.2381 267.785 51.1899L272.89 51.0485L272.974 51.1385C269.578 56.767 264.701 64.1109 260.881 69.2479C260.457 69.8326 260.431 69.9996 260.431 70.2502C260.431 70.6004 260.832 70.8478 261.581 70.8478L279.193 70.9988C279.791 69.2993 280.443 66.7067 280.793 64.2138C280.469 64.0274 279.393 63.9118 278.792 63.9118L278.091 65.3542C276.816 67.9886 275.791 68.8977 273.189 68.8977H268.386L268.344 68.7467C272.023 64.0274 277.025 56.1341 280.042 51.1899C280.803 49.9305 280.944 49.5386 280.944 49.3394C280.944 49.137 280.694 48.9893 280.344 48.9893C280.093 48.9893 276.691 49.0888 275.239 49.0888H265.584C263.975 49.0888 263.509 48.7644 262.632 48.5877V48.5877ZM293.802 64.7952V54.8233C293.802 52.34 294.001 49.5386 294.001 49.5386C294.001 48.9893 293.551 48.6873 292.851 48.6873C291.425 49.2366 287.396 49.6382 283.945 50.088C283.846 50.3899 283.945 51.3891 284.045 51.6878C286.772 51.9384 287.296 52.34 287.296 55.1928V64.7952C287.296 68.9491 286.747 69.0487 283.695 69.2993C283.396 69.5981 283.396 70.7 283.695 70.9988C285.796 70.9506 287.881 70.8992 290.547 70.8992C293.217 70.8992 295.251 70.9506 297.403 70.9988C297.702 70.7 297.702 69.5981 297.403 69.2993C294.351 69.0969 293.802 68.9491 293.802 64.7952V64.7952ZM287.045 41.0831C287.045 42.7343 288.247 44.3856 290.249 44.3856C292.501 44.3856 293.802 42.5833 293.802 41.2854C293.802 39.782 292.649 37.9829 290.547 37.9829C288.196 37.9829 287.045 39.5828 287.045 41.0831V41.0831ZM310.409 79.3033C311.202 77.9026 311.961 76.1004 312.561 74.6001C316.564 64.9462 319.016 59.5426 321.666 53.9399C322.367 52.491 323.867 50.9393 325.718 50.7883C326.02 50.4895 326.02 49.3876 325.718 49.0888C324.468 49.137 323.568 49.1884 322.167 49.1884C320.417 49.1884 318.714 49.137 316.863 49.0888C316.564 49.3876 316.564 50.4895 316.863 50.7883C318.463 50.9393 320.066 51.1899 319.263 52.9889L314.113 64.5446C314.094 64.5864 314.087 64.6218 314.078 64.6442C314.078 64.6057 314.052 64.5382 314.01 64.4451L309.358 53.9913C308.449 51.9384 307.957 51.0389 311.01 50.7883C311.312 50.4895 311.312 49.3876 311.01 49.0888C309.159 49.137 306.158 49.1884 304.356 49.1884C302.656 49.1884 299.803 49.137 298.804 49.0888C298.502 49.3876 298.502 50.4895 298.804 50.7883C301.005 50.9907 301.387 51.3569 302.756 54.4892L309.21 69.2993C310.059 70.4976 311.01 71.4003 310.611 72.2999L309.426 75.0498C308.767 76.5919 308.16 77.5011 306.759 77.5011C305.856 77.5011 305.708 77.3019 305.008 77.3019C303.106 77.3019 302.004 78.603 302.004 79.6021C302.004 80.2607 302.129 81.0381 302.605 81.6035C303.071 82.1561 303.89 82.5063 304.555 82.5063C305.214 82.5063 306.717 82.3296 307.408 82.0051C308.459 81.5039 309.85 80.296 310.409 79.3033V79.3033ZM338.855 64.5446C338.855 68.6985 338.755 69.2993 338.553 71.1979C339.153 71.4003 339.703 71.5481 340.255 71.5481C340.904 70.9988 341.406 70.3145 341.855 69.3989C343.805 70.8992 346.874 71.4003 349.161 71.4003C354.713 71.4003 360.566 65.9036 360.566 58.7427C360.566 55.8996 359.474 53.0725 357.865 51.2381C356.062 49.1884 353.653 48.6873 351.012 48.6873C349.46 48.6873 346.809 50.4381 345.357 51.4887V41.7352C345.357 38.4841 345.508 36.6304 345.508 36.6304C345.508 36.1806 345.158 35.9814 344.708 35.9814C342.858 36.5822 338.855 37.1316 335.301 37.2825C335.153 37.8833 335.202 38.4327 335.452 38.8824C338.604 39.133 338.855 39.2005 338.855 42.6347V64.5446ZM345.357 53.4901C347.009 52.4139 348.085 52.2404 349.261 52.2404C351.712 52.2404 353.563 54.4892 353.563 59.3949C353.563 63.4781 352.862 69.2993 348.911 69.2993C347.442 69.2993 346.308 68.6985 345.357 67.5484V53.4901V53.4901ZM376.042 68.4737C376.377 70.4976 377.726 71.4003 379.927 71.4003C382.686 71.4003 384.63 70.3498 386.481 68.5989C386.365 68.0143 386.156 67.6127 385.581 67.1983C384.929 67.6962 384.431 67.8986 383.48 67.8986C382.378 67.8986 382.079 66.9959 382.079 64.5446L382.179 57.342C382.179 50.1394 377.726 48.6873 373.617 48.6873C369.948 48.6873 364.319 50.7626 364.319 54.0652C364.319 55.498 364.926 56.5999 366.912 56.5999C368.679 56.5999 370.022 55.498 370.022 54.29C370.022 53.6315 369.671 52.7898 369.787 51.9224C369.864 51.373 370.221 50.7883 371.908 50.7883C374.015 50.7883 375.776 51.6878 375.776 58.0424L372.415 59.0929C367.153 60.7441 363.468 62.1962 363.468 66.1477C363.468 69.5981 365.37 71.4003 369.723 71.4003C371.172 71.4003 374.073 69.7972 375.724 68.4994L376.042 68.4737V68.4737ZM375.776 59.9924V66.5975C374.523 67.5966 373.273 68.3966 372.373 68.3966C370.221 68.3966 369.472 66.9477 369.472 65.396C369.472 63.5455 369.63 62.0035 373.173 60.8437L375.776 59.9924ZM398.487 64.7952V54.8233V54.7334C400.472 53.3648 402.506 52.3882 403.389 52.3882C405.391 52.3882 406.891 53.2909 406.891 56.1405V64.4965C406.891 68.6985 406.091 69.1483 404.042 69.2993C403.74 69.5981 403.74 70.7 404.042 70.9988C406.143 70.9506 407.768 70.8992 410.143 70.8992C412.912 70.8992 415.097 70.9506 417.249 70.9988C417.548 70.7 417.548 69.5981 417.249 69.2993C414.197 69.1483 413.397 68.6985 413.397 64.4965V56.6931C413.397 51.1899 411.046 48.6873 406.744 48.6873C404.726 48.6873 401.163 50.8975 398.413 52.7801C398.297 51.0228 398.088 49.5386 398.088 49.5386C398.037 48.9282 397.635 48.6873 396.938 48.6873C395.084 49.1884 392.084 49.8888 388.633 50.3385C388.53 50.6373 388.633 51.6396 388.733 51.9384C391.457 52.189 391.984 52.5906 391.984 55.4401V64.7952C391.984 68.9491 391.435 69.0487 388.383 69.2993C388.081 69.5981 388.081 70.7 388.383 70.9988C390.484 70.9506 392.569 70.8992 395.235 70.8992C397.513 70.8992 398.937 70.9506 401.089 70.9988C401.388 70.7 401.388 69.5981 401.089 69.2993C398.988 69.0969 398.487 68.9491 398.487 64.7952V64.7952ZM423.402 64.5446C423.402 68.6985 422.602 69.1483 419.55 69.2993C419.251 69.5981 419.251 70.7 419.55 70.9988C421.651 70.9506 423.884 70.8992 426.653 70.8992C428.838 70.8992 431.055 70.9506 432.256 70.9988C432.558 70.7 432.558 69.5981 432.256 69.2993C430.73 69.1226 429.904 68.6985 429.904 64.5446V60.4422C431.305 60.4422 432.831 60.6189 433.358 61.3931C434.508 63.0958 435.909 65.1711 436.761 66.9959C437.409 68.3966 437.56 68.8495 437.56 69.5981V70.8992L437.66 70.9988C437.66 70.9988 439.912 70.8992 441.663 70.8992C443.713 70.8992 446.514 70.9506 448.365 70.9988C448.667 70.7 448.667 69.5981 448.365 69.2993C446.421 69.1226 445.329 69.2415 443.813 66.9959L438.01 58.4439C437.769 58.0938 437.644 57.6761 437.859 57.4416L440.336 54.7173C441.952 52.9311 443.311 51.2124 447.115 50.7883C447.414 50.4895 447.414 49.3876 447.115 49.0888C446.013 49.137 442.862 49.1884 441.56 49.1884C439.71 49.1884 437.358 49.137 435.508 49.0888C435.209 49.3876 435.209 50.4895 435.508 50.7883C438.209 50.9907 438.987 51.463 437.56 53.4387C436.459 54.9583 435.36 56.1662 434.357 57.0336C433.715 57.5829 431.405 58.4439 429.904 58.4439V41.7352C429.904 38.4841 430.055 36.6304 430.055 36.6304C430.055 36.1806 429.705 35.9814 429.255 35.9814C427.405 36.5822 423.402 37.1316 419.848 37.2825C419.701 37.8833 419.749 38.4327 419.999 38.8824C423.151 39.133 423.402 39.2005 423.402 42.6347V64.5446ZM461.174 64.7952V54.8233C461.174 52.34 461.374 49.5386 461.374 49.5386C461.374 48.9893 460.924 48.6873 460.223 48.6873C458.797 49.2366 454.768 49.6382 451.318 50.088C451.218 50.3899 451.318 51.3891 451.417 51.6878C454.145 51.9384 454.668 52.34 454.668 55.1928V64.7952C454.668 68.9491 454.119 69.0487 451.067 69.2993C450.768 69.5981 450.768 70.7 451.067 70.9988C453.168 70.9506 455.253 70.8992 457.92 70.8992C460.59 70.8992 462.623 70.9506 464.776 70.9988C465.075 70.7 465.075 69.5981 464.776 69.2993C461.724 69.0969 461.174 68.9491 461.174 64.7952V64.7952ZM454.418 41.0831C454.418 42.7343 455.619 44.3856 457.621 44.3856C459.873 44.3856 461.174 42.5833 461.174 41.2854C461.174 39.782 460.021 37.9829 457.92 37.9829C455.568 37.9829 454.418 39.5828 454.418 41.0831V41.0831Z" fill="black"/>
<path d="M122.862 3.5022C126.152 3.5022 128.764 6.73086 128.764 12.9665C128.764 18.0745 126.981 21.4478 123.877 21.4478C120.497 21.4478 117.853 18.1002 117.853 12.324C117.853 6.053 120.121 3.5022 122.862 3.5022V3.5022ZM133.403 12.324C133.403 6.20721 128.854 2.21395 123.231 2.21395C120.144 2.21395 117.49 3.52469 115.707 5.65464C114.107 7.55328 113.214 10.1009 113.214 12.9376C113.214 19.0223 118.036 22.7392 123.26 22.7392C126.428 22.7392 128.998 21.602 130.759 19.6969C132.455 17.8689 133.403 15.3406 133.403 12.324V12.324ZM136.323 7.95807C137.429 7.95807 137.766 7.40551 137.766 6.91398C137.766 6.42245 137.612 5.65464 136.352 5.65464C136.137 5.65464 136.015 5.40727 136.015 5.10207C136.015 4.3953 136.567 3.25804 137.859 2.98176L137.737 2.4581C134.939 2.61231 134.479 4.91574 134.479 5.71568C134.479 6.82081 135.154 7.95807 136.323 7.95807V7.95807ZM140.625 8.72588C140.555 8.72588 140.439 8.83832 140.439 8.91221C140.41 10.2936 140.224 11.6718 139.979 13.1721C140.249 13.2846 140.943 13.3456 141.3 13.2653C141.917 11.0261 142.868 10.3547 143.79 10.3258L146.925 10.239L146.977 10.2936C144.892 13.7504 141.894 18.2641 139.549 21.4189C139.289 21.7755 139.273 21.8783 139.273 22.0325C139.273 22.2477 139.517 22.4019 139.979 22.4019L150.797 22.4951C151.166 21.4478 151.565 19.8575 151.78 18.3251C151.581 18.2127 150.919 18.142 150.553 18.142L150.122 19.0255C149.338 20.6446 148.709 21.2036 147.109 21.2036H144.159L144.134 21.1105C146.392 18.2127 149.467 13.3617 151.321 10.3258C151.786 9.55152 151.873 9.31058 151.873 9.1885C151.873 9.06642 151.719 8.97325 151.504 8.97325C151.349 8.97325 149.261 9.03429 148.368 9.03429H142.437C141.448 9.03429 141.162 8.83511 140.625 8.72588V8.72588ZM155.529 18.5307C155.529 21.0815 155.468 21.4478 155.346 22.6172C155.716 22.7392 156.053 22.8324 156.39 22.8324C156.789 22.4951 157.097 22.0742 157.373 21.512C158.572 22.434 160.458 22.7392 161.862 22.7392C165.27 22.7392 168.865 19.366 168.865 14.9647C168.865 13.2203 168.197 11.4823 167.208 10.3547C166.102 9.09533 164.621 8.78692 162.999 8.78692C162.045 8.78692 160.416 9.86314 159.526 10.5089V4.51738C159.526 2.51914 159.616 1.38188 159.616 1.38188C159.616 1.1056 159.401 0.983521 159.124 0.983521C157.987 1.35297 155.529 1.69029 153.348 1.78346C153.255 2.14969 153.287 2.49023 153.441 2.76651C155.375 2.92072 155.529 2.95927 155.529 5.06995V18.5307V18.5307ZM159.526 11.7393C160.538 11.0775 161.2 10.9715 161.923 10.9715C163.429 10.9715 164.564 12.3529 164.564 15.3663C164.564 17.8754 164.133 21.4478 161.707 21.4478C160.805 21.4478 160.107 21.0815 159.526 20.3748V11.7393V11.7393ZM175.657 13.9817C175.689 12.9055 175.853 11.7489 176.274 11.1257C176.759 10.3932 177.585 10.0784 177.932 10.0784C178.764 10.0784 179.898 10.8783 179.898 13.336C179.898 13.5223 179.898 13.9207 179.837 13.9817H175.657V13.9817ZM183.464 18.4697C182.205 19.7579 180.544 20.0985 179.378 20.0985C176.981 20.0985 175.506 18.7139 175.506 15.7036C175.506 15.4884 175.535 15.3663 175.535 15.2121H182.912C183.647 15.2121 183.802 14.6885 183.802 14.258C183.802 11.6461 182.79 8.78692 178.269 8.78692C175.044 8.78692 171.355 11.6461 171.355 16.3494C171.355 18.1452 172.008 20.015 173.322 21.2036C174.475 22.2477 175.991 22.7392 178.179 22.7392C180.3 22.7392 182.388 21.663 183.927 19.4206C183.927 19.0223 183.773 18.4697 183.464 18.4697V18.4697ZM187.705 18.5307C187.705 21.0815 187.214 21.3578 185.337 21.4478C185.154 21.6341 185.154 22.3088 185.337 22.4951C186.629 22.463 188.001 22.434 189.703 22.434C191.043 22.434 192.405 22.463 193.144 22.4951C193.328 22.3088 193.328 21.6341 193.144 21.4478C192.206 21.3418 191.699 21.0815 191.699 18.5307V16.0088C192.56 16.0088 193.498 16.1181 193.819 16.5935C194.526 17.6376 195.387 18.913 195.911 20.0374C196.309 20.8952 196.402 21.1715 196.402 21.6341V22.434L196.463 22.4951C196.463 22.4951 197.845 22.434 198.921 22.434C200.184 22.434 201.902 22.463 203.04 22.4951C203.223 22.3088 203.223 21.6341 203.04 21.4478C201.848 21.3418 201.176 21.4124 200.245 20.0374L196.678 14.7816C196.531 14.5664 196.454 14.3094 196.585 14.1648L198.108 12.491C199.101 11.3956 199.936 10.3418 202.272 10.0784C202.455 9.89527 202.455 9.21741 202.272 9.03429C201.594 9.06642 199.66 9.09533 198.86 9.09533C197.723 9.09533 196.28 9.06642 195.143 9.03429C194.956 9.21741 194.956 9.89527 195.143 10.0784C196.8 10.2037 197.276 10.4928 196.402 11.7072C195.724 12.6388 195.05 13.3809 194.436 13.9142C194.041 14.2548 192.621 14.7816 191.699 14.7816V4.51738C191.699 2.51914 191.792 1.38188 191.792 1.38188C191.792 1.1056 191.577 0.983521 191.3 0.983521C190.163 1.35297 187.705 1.69029 185.524 1.78346C185.431 2.14969 185.463 2.49023 185.617 2.76651C187.551 2.92072 187.705 2.95927 187.705 5.06995V18.5307V18.5307ZM210.908 18.6849V12.5585C210.908 11.0325 211.03 9.31058 211.03 9.31058C211.03 8.97325 210.754 8.78692 210.323 8.78692C209.449 9.12746 206.975 9.37162 204.855 9.6479C204.791 9.83423 204.855 10.4478 204.916 10.631C206.59 10.7852 206.911 11.0325 206.911 12.7834V18.6849C206.911 21.2325 206.574 21.2968 204.701 21.4478C204.514 21.6341 204.514 22.3088 204.701 22.4951C205.989 22.463 207.271 22.434 208.909 22.434C210.548 22.434 211.798 22.463 213.121 22.4951C213.305 22.3088 213.305 21.6341 213.121 21.4478C211.245 21.3257 210.908 21.2325 210.908 18.6849V18.6849ZM206.76 4.11902C206.76 5.13099 207.496 6.14617 208.726 6.14617C210.108 6.14617 210.908 5.03782 210.908 4.2411C210.908 3.31908 210.201 2.21395 208.909 2.21395C207.467 2.21395 206.76 3.197 206.76 4.11902V4.11902ZM215.149 17.946C215.271 19.4688 215.409 20.9113 215.669 22.0646C216.238 22.2638 218.217 22.7392 219.942 22.7392C222.31 22.7392 225.259 21.4542 225.259 18.7749C225.259 17.7372 224.999 16.8955 224.315 16.1341C223.431 15.1382 222.156 14.3801 220.742 13.7665C219.512 13.2299 219.081 12.2597 219.081 11.3699C219.081 10.6631 219.666 10.0784 220.556 10.0784C221.632 10.0784 222.676 11.0614 223.444 12.9376C224 13.0308 224.337 12.9986 224.646 12.7834C224.646 11.6783 224.52 10.5089 224.244 9.52582C223.261 9.09533 222.493 8.78692 220.803 8.78692C219.177 8.78692 217.626 9.39732 216.655 10.3868C215.949 11.1032 215.608 11.9545 215.608 12.7834C215.608 13.6958 215.961 14.4315 216.562 15.0868C217.513 16.1341 219.19 17.22 220.125 17.6376C221.356 18.1934 221.693 19.2985 221.693 20.0374C221.693 21.0237 220.71 21.5409 219.881 21.5409C218.493 21.5409 217.022 20.1435 216.376 17.885C215.884 17.7918 215.64 17.824 215.149 17.946V17.946ZM228.732 9.12746C228.302 9.13067 227.836 9.24954 227.441 9.58686V10.48C227.441 10.631 227.473 10.6631 227.595 10.6631H229.593C229.526 13.7472 229.5 17.6794 229.5 19.2118C229.5 20.288 229.767 21.3161 230.422 21.8783C231.113 22.4726 232.244 22.7392 232.973 22.7392C234.669 22.7392 236.536 21.8783 237.153 21.0205C237.153 20.651 236.967 20.4647 236.597 20.1627C236.199 20.4647 235.431 20.59 234.846 20.59C234.171 20.59 233.494 20.0728 233.494 18.5339C233.494 17.0048 233.465 13.7247 233.465 10.6631H236.568C236.877 10.6631 237.307 10.541 237.307 10.2647V9.31058C237.307 9.1885 237.214 9.12746 237.06 9.12746H233.465L233.494 8.08336C233.558 6.03694 233.648 4.61054 233.648 4.61054C233.648 4.41458 233.558 4.3439 233.407 4.3439C233.188 4.3439 232.041 4.68122 231.559 4.88683C231.036 5.10207 230.139 5.27876 229.931 5.56147C229.715 5.85382 229.593 6.68267 229.593 9.12746H228.732ZM245.786 10.0784C247.877 10.0784 249.291 12.5682 249.291 16.7799C249.291 20.4711 247.845 21.4478 246.74 21.4478C244.221 21.4478 243.238 17.6698 243.238 15.3952C243.238 12.5682 243.729 10.0784 245.786 10.0784V10.0784ZM238.933 16.0699C238.933 20.0856 242.113 22.7392 246.248 22.7392C248.414 22.7392 250.245 22.1192 251.504 20.9884C253.056 19.5941 253.593 17.5059 253.593 15.7936C253.593 11.7746 250.842 8.78692 246.28 8.78692C243.729 8.78692 241.827 9.66396 240.613 11.0614C239.45 12.3979 238.933 14.2548 238.933 16.0699V16.0699ZM261.737 18.6849V12.5585V12.5007C262.955 11.6622 264.204 11.0614 264.747 11.0614C265.978 11.0614 266.9 11.6172 266.9 13.3681V18.4986C266.9 21.0815 266.408 21.3578 265.149 21.4478C264.963 21.6341 264.963 22.3088 265.149 22.4951C266.437 22.463 267.436 22.434 268.898 22.434C270.598 22.434 271.941 22.463 273.261 22.4951C273.444 22.3088 273.444 21.6341 273.261 21.4478C271.385 21.3578 270.893 21.0815 270.893 18.4986V13.7054C270.893 10.3258 269.451 8.78692 266.807 8.78692C265.567 8.78692 263.382 10.1459 261.692 11.3024C261.618 10.223 261.49 9.31058 261.49 9.31058C261.461 8.93792 261.213 8.78692 260.783 8.78692C259.649 9.09533 257.805 9.52582 255.684 9.8021C255.62 9.98843 255.684 10.602 255.745 10.7852C257.419 10.9394 257.74 11.1867 257.74 12.9376V18.6849C257.74 21.2325 257.403 21.2968 255.53 21.4478C255.344 21.6341 255.344 22.3088 255.53 22.4951C256.818 22.463 258.1 22.434 259.739 22.434C261.136 22.434 262.013 22.463 263.334 22.4951C263.52 22.3088 263.52 21.6341 263.334 21.4478C262.045 21.3257 261.737 21.2325 261.737 18.6849V18.6849ZM297.768 8.08336C297.768 11.8517 295.494 12.4461 292.911 12.4461H291.59V6.32929C291.59 4.2411 292.297 3.59536 293.926 3.59536C295.709 3.59536 297.768 4.33426 297.768 8.08336V8.08336ZM294.909 2.33602C293.682 2.33602 285.968 2.55127 284.737 2.55127C284.432 2.73439 284.432 3.41224 284.737 3.59536C286.427 3.68853 287.288 3.81061 287.288 6.36141V18.6849C287.288 21.2325 286.427 21.3578 284.737 21.4478C284.432 21.6341 284.432 22.3088 284.737 22.4951C285.968 22.463 288.242 22.434 289.47 22.434C290.7 22.434 292.91 22.463 294.141 22.4951C294.449 22.3088 294.449 21.6341 294.141 21.4478C292.451 21.3578 291.59 21.2325 291.59 18.6849V13.7375C294.029 13.7407 294.295 13.956 294.726 14.6596L298.321 20.0053C299.275 21.3867 300.534 22.7392 302.379 22.7392C303.612 22.7392 305.206 22.6493 305.511 22.4951C305.62 22.2798 305.604 21.6951 305.482 21.4478C304.097 21.4478 303.391 20.7121 302.53 19.4206L298.353 12.9665C300.011 12.2919 302.407 10.6952 302.407 7.55971C302.407 6.32607 301.948 4.47562 300.043 3.34799C298.906 2.67977 297.216 2.33602 294.909 2.33602V2.33602ZM310.613 13.9817C310.645 12.9055 310.809 11.7489 311.227 11.1257C311.715 10.3932 312.541 10.0784 312.888 10.0784C313.716 10.0784 314.854 10.8783 314.854 13.336C314.854 13.5223 314.854 13.9207 314.793 13.9817H310.613ZM318.42 18.4697C317.16 19.7579 315.5 20.0985 314.333 20.0985C311.933 20.0985 310.459 18.7139 310.459 15.7036C310.459 15.4884 310.491 15.3663 310.491 15.2121H317.867C318.603 15.2121 318.757 14.6885 318.757 14.258C318.757 11.6461 317.742 8.78692 313.225 8.78692C309.999 8.78692 306.311 11.6461 306.311 16.3494C306.311 18.1452 306.96 20.015 308.277 21.2036C309.431 22.2477 310.947 22.7392 313.132 22.7392C315.255 22.7392 317.344 21.663 318.879 19.4206C318.879 19.0223 318.725 18.4697 318.42 18.4697V18.4697ZM321.678 17.946C321.8 19.4688 321.938 20.9113 322.198 22.0646C322.767 22.2638 324.746 22.7392 326.471 22.7392C328.836 22.7392 331.788 21.4542 331.788 18.7749C331.788 17.7372 331.525 16.8955 330.844 16.1341C329.96 15.1382 328.685 14.3801 327.271 13.7665C326.041 13.2299 325.61 12.2597 325.61 11.3699C325.61 10.6631 326.195 10.0784 327.085 10.0784C328.161 10.0784 329.205 11.0614 329.973 12.9376C330.526 13.0308 330.866 12.9986 331.171 12.7834C331.171 11.6783 331.049 10.5089 330.773 9.52582C329.79 9.09533 329.022 8.78692 327.332 8.78692C325.706 8.78692 324.155 9.39732 323.181 10.3868C322.474 11.1032 322.137 11.9545 322.137 12.7834C322.137 13.6958 322.49 14.4315 323.091 15.0868C324.042 16.1341 325.719 17.22 326.654 17.6376C327.885 18.1934 328.222 19.2985 328.222 20.0374C328.222 21.0237 327.239 21.5409 326.41 21.5409C325.022 21.5409 323.551 20.1435 322.905 17.885C322.413 17.7918 322.169 17.824 321.678 17.946V17.946ZM335.936 12.9376V25.8137C335.936 28.3645 335.599 28.4255 333.722 28.5797C333.539 28.7629 333.539 29.4407 333.722 29.6238C335.014 29.5917 336.296 29.5628 337.934 29.5628C339.573 29.5628 340.823 29.5917 342.143 29.6238C342.329 29.4407 342.329 28.7629 342.143 28.5797C340.27 28.4545 339.929 28.3645 339.929 25.8137V22.2188C340.591 22.5561 341.253 22.7392 341.989 22.7392C346.676 22.7392 349.703 19.6808 349.703 15.1511C349.703 13.4388 349.054 11.5241 347.859 10.3258C346.785 9.24311 345.243 8.78692 343.65 8.78692C342.757 8.78692 341.099 9.86314 340.023 10.8462H339.849C339.778 9.97558 339.685 9.31058 339.685 9.31058C339.653 8.93792 339.409 8.78692 338.978 8.78692C337.841 9.09533 335.997 9.52582 333.877 9.8021C333.815 9.98843 333.877 10.602 333.938 10.7852C335.615 10.9394 335.936 11.1867 335.936 12.9376V12.9376ZM339.929 20.4358V12.5585C339.929 12.3947 339.926 12.2244 339.92 12.0573C340.806 11.2574 341.944 10.8462 342.667 10.8462C343.926 10.8462 345.401 12.385 345.401 15.9799C345.401 18.5596 344.479 21.4478 341.806 21.4478C341.468 21.4478 340.7 21.2647 339.929 20.4358V20.4358ZM365.93 18.3444V13.0308C365.93 10.4478 365.991 10.8173 365.991 10.0784C365.991 9.55795 365.869 9.21741 365.683 9.03429C365.13 9.06642 364.517 9.09533 363.932 9.09533C363.081 9.09533 361.076 9.06642 359.874 9.03429C359.691 9.21741 359.691 9.89527 359.874 10.0784C361.442 10.2326 361.934 10.4478 361.934 13.0308V18.7235C361.934 19.0223 361.947 19.3275 361.959 19.6359C360.71 20.4101 359.675 20.4647 359.139 20.4647C357.908 20.4647 356.986 20.3266 356.986 18.1613V13.0308C356.986 10.4478 357.047 10.8173 357.047 10.0784C357.047 9.55795 356.925 9.21741 356.742 9.03429C356.189 9.06642 355.553 9.09533 354.991 9.09533C353.407 9.09533 352.254 9.06642 350.933 9.03429C350.75 9.21741 350.75 9.89527 350.933 10.0784C352.347 10.1394 352.993 10.4478 352.993 13.0308V17.824C352.993 21.0944 354.284 22.7392 356.925 22.7392C358.043 22.7392 360.276 21.8526 362.043 20.8663C362.114 21.6373 362.181 22.2188 362.181 22.2188C362.207 22.585 362.457 22.7392 362.888 22.7392C364.025 22.434 365.869 22.0036 367.99 21.7273C368.051 21.5409 367.99 20.9273 367.929 20.741C366.252 20.59 365.93 20.0985 365.93 18.3444ZM370.907 18.5307C370.907 21.0815 370.846 21.4478 370.724 22.6172C371.093 22.7392 371.431 22.8324 371.768 22.8324C372.17 22.4951 372.475 22.0742 372.751 21.512C373.949 22.434 375.835 22.7392 377.239 22.7392C380.651 22.7392 384.246 19.366 384.246 14.9647C384.246 13.2203 383.575 11.4823 382.585 10.3547C381.48 9.09533 379.999 8.78692 378.377 8.78692C377.422 8.78692 375.794 9.86314 374.904 10.5089V4.51738C374.904 2.51914 374.997 1.38188 374.997 1.38188C374.997 1.1056 374.781 0.983521 374.505 0.983521C373.368 1.35297 370.907 1.69029 368.725 1.78346C368.635 2.14969 368.664 2.49023 368.819 2.76651C370.756 2.92072 370.907 2.95927 370.907 5.06995V18.5307V18.5307ZM374.904 11.7393C375.919 11.0775 376.577 10.9715 377.3 10.9715C378.807 10.9715 379.944 12.3529 379.944 15.3663C379.944 17.8754 379.514 21.4478 377.085 21.4478C376.185 21.4478 375.488 21.0815 374.904 20.3748V11.7393V11.7393ZM388.365 18.5307C388.365 21.0815 387.874 21.3578 385.997 21.4478C385.814 21.6341 385.814 22.3088 385.997 22.4951C387.289 22.463 388.661 22.434 390.36 22.434C392.063 22.434 393.403 22.463 394.726 22.4951C394.91 22.3088 394.91 21.6341 394.726 21.4478C392.85 21.3578 392.359 21.0815 392.359 18.5307V4.51738C392.359 2.51914 392.452 1.38188 392.452 1.38188C392.452 1.1056 392.237 0.983521 391.96 0.983521C390.823 1.35297 388.365 1.69029 386.18 1.78346C386.09 2.14969 386.119 2.49023 386.274 2.76651C388.211 2.92072 388.365 2.95927 388.365 5.06995V18.5307ZM402.717 18.6849V12.5585C402.717 11.0325 402.839 9.31058 402.839 9.31058C402.839 8.97325 402.562 8.78692 402.132 8.78692C401.255 9.12746 398.781 9.37162 396.66 9.6479C396.599 9.83423 396.66 10.4478 396.722 10.631C398.399 10.7852 398.72 11.0325 398.72 12.7834V18.6849C398.72 21.2325 398.383 21.2968 396.509 21.4478C396.323 21.6341 396.323 22.3088 396.509 22.4951C397.798 22.463 399.08 22.434 400.718 22.434C402.357 22.434 403.606 22.463 404.927 22.4951C405.113 22.3088 405.113 21.6341 404.927 21.4478C403.054 21.3257 402.717 21.2325 402.717 18.6849V18.6849ZM398.566 4.11902C398.566 5.13099 399.305 6.14617 400.535 6.14617C401.917 6.14617 402.717 5.03782 402.717 4.2411C402.717 3.31908 402.01 2.21395 400.718 2.21395C399.272 2.21395 398.566 3.197 398.566 4.11902V4.11902ZM408.863 18.5307C408.863 21.0815 408.371 21.3578 406.495 21.4478C406.312 21.6341 406.312 22.3088 406.495 22.4951C407.786 22.463 409.158 22.434 410.858 22.434C412.201 22.434 413.563 22.463 414.302 22.4951C414.485 22.3088 414.485 21.6341 414.302 21.4478C413.364 21.3418 412.856 21.0815 412.856 18.5307V16.0088C413.717 16.0088 414.655 16.1181 414.976 16.5935C415.683 17.6376 416.544 18.913 417.068 20.0374C417.466 20.8952 417.56 21.1715 417.56 21.6341V22.434L417.621 22.4951C417.621 22.4951 419.002 22.434 420.078 22.434C421.338 22.434 423.06 22.463 424.197 22.4951C424.38 22.3088 424.38 21.6341 424.197 21.4478C423.002 21.3418 422.331 21.4124 421.399 20.0374L417.836 14.7816C417.688 14.5664 417.611 14.3094 417.743 14.1648L419.266 12.491C420.258 11.3956 421.094 10.3418 423.429 10.0784C423.612 9.89527 423.612 9.21741 423.429 9.03429C422.751 9.06642 420.817 9.09533 420.017 9.09533C418.88 9.09533 417.434 9.06642 416.3 9.03429C416.114 9.21741 416.114 9.89527 416.3 10.0784C417.958 10.2037 418.433 10.4928 417.56 11.7072C416.882 12.6388 416.207 13.3809 415.59 13.9142C415.198 14.2548 413.778 14.7816 412.856 14.7816V4.51738C412.856 2.51914 412.949 1.38188 412.949 1.38188C412.949 1.1056 412.734 0.983521 412.458 0.983521C411.32 1.35297 408.863 1.69029 406.681 1.78346C406.588 2.14969 406.617 2.49023 406.771 2.76651C408.708 2.92072 408.863 2.95927 408.863 5.06995V18.5307V18.5307ZM433.704 20.9434C433.906 22.1867 434.738 22.7392 436.088 22.7392C437.784 22.7392 438.979 22.0935 440.116 21.0205C440.043 20.6607 439.914 20.4133 439.561 20.1595C439.162 20.4647 438.854 20.59 438.272 20.59C437.594 20.59 437.411 20.0374 437.411 18.5307L437.472 14.1038C437.472 9.68002 434.738 8.78692 432.213 8.78692C429.958 8.78692 426.501 10.0655 426.501 12.0927C426.501 12.9729 426.873 13.6476 428.094 13.6476C429.18 13.6476 430.006 12.9729 430.006 12.2308C430.006 11.826 429.791 11.3088 429.861 10.7755C429.906 10.4382 430.128 10.0784 431.162 10.0784C432.457 10.0784 433.54 10.631 433.54 14.5343L431.474 15.18C428.242 16.1952 425.98 17.0851 425.98 19.5138C425.98 21.6341 427.146 22.7392 429.819 22.7392C430.713 22.7392 432.492 21.7562 433.508 20.9562L433.704 20.9434V20.9434ZM433.54 15.7326V19.7901C432.772 20.4037 432.001 20.8952 431.448 20.8952C430.128 20.8952 429.665 20.0053 429.665 19.0512C429.665 17.9171 429.765 16.9694 431.94 16.2562L433.54 15.7326ZM441.652 17.946C441.774 19.4688 441.912 20.9113 442.176 22.0646C442.741 22.2638 444.72 22.7392 446.446 22.7392C448.813 22.7392 451.763 21.4542 451.763 18.7749C451.763 17.7372 451.502 16.8955 450.821 16.1341C449.935 15.1382 448.659 14.3801 447.246 13.7665C446.015 13.2299 445.585 12.2597 445.585 11.3699C445.585 10.6631 446.169 10.0784 447.059 10.0784C448.136 10.0784 449.18 11.0614 449.951 12.9376C450.503 13.0308 450.841 12.9986 451.149 12.7834C451.149 11.6783 451.024 10.5089 450.747 9.52582C449.764 9.09533 448.997 8.78692 447.307 8.78692C445.684 8.78692 444.132 9.39732 443.159 10.3868C442.452 11.1032 442.112 11.9545 442.112 12.7834C442.112 13.6958 442.465 14.4315 443.066 15.0868C444.017 16.1341 445.694 17.22 446.632 17.6376C447.859 18.1934 448.196 19.2985 448.196 20.0374C448.196 21.0237 447.213 21.5409 446.385 21.5409C444.997 21.5409 443.525 20.1435 442.879 17.885C442.388 17.7918 442.144 17.824 441.652 17.946V17.946ZM460.428 18.6849V12.5585C460.428 11.0325 460.553 9.31058 460.553 9.31058C460.553 8.97325 460.276 8.78692 459.846 8.78692C458.969 9.12746 456.495 9.37162 454.375 9.6479C454.314 9.83423 454.375 10.4478 454.436 10.631C456.11 10.7852 456.434 11.0325 456.434 12.7834V18.6849C456.434 21.2325 456.097 21.2968 454.22 21.4478C454.037 21.6341 454.037 22.3088 454.22 22.4951C455.512 22.463 456.791 22.434 458.432 22.434C460.071 22.434 461.321 22.463 462.641 22.4951C462.824 22.3088 462.824 21.6341 462.641 21.4478C460.768 21.3257 460.428 21.2325 460.428 18.6849V18.6849ZM456.28 4.11902C456.28 5.13099 457.019 6.14617 458.246 6.14617C459.631 6.14617 460.428 5.03782 460.428 4.2411C460.428 3.31908 459.721 2.21395 458.432 2.21395C456.987 2.21395 456.28 3.197 456.28 4.11902V4.11902Z" fill="black" fill-opacity="0.87"/>
<defs>
<radialGradient id="paint0_radial" cx="0" cy="0" r="1" gradientUnits="userSpaceOnUse" gradientTransform="translate(61.5402 23.3758) rotate(144.287) scale(64.9969 66.7943)">
<stop stop-color="#E4A237"/>
<stop offset="0.501961" stop-color="#F0B644"/>
<stop offset="1" stop-color="#E7C66E"/>
</radialGradient>
</defs>
</svg>
