<svg width="258" height="258" viewBox="0 0 258 258" fill="none" xmlns="http://www.w3.org/2000/svg">
<path fill-rule="evenodd" clip-rule="evenodd" d="M151.744 153.312L121.853 67.0921L92.136 153.312H151.744ZM40 233.644V227.931C46.6039 227.038 51.6437 224.003 54.9456 218.827C58.2476 213.65 63.9825 199.547 72.1505 176.519L126.197 23H131.237L195.712 200.44C200.057 212.221 203.359 219.541 205.965 222.397C208.573 225.075 212.917 227.038 219 228.109V233.821H152.961V228.109C160.608 227.217 165.473 226.324 167.559 225.252C169.819 224.003 170.861 221.148 170.861 216.506C170.861 214.899 170.513 212.221 169.645 208.472C168.776 204.546 167.559 200.619 166.169 196.334L155.395 166.166H87.6175C80.8399 186.695 76.8427 199.191 75.4525 203.831C74.2359 208.295 73.5408 211.865 73.5408 214.542C73.5408 219.897 75.2788 223.468 78.928 225.61C81.1875 226.859 85.1846 227.752 91.2671 228.287V234H40V233.644Z" fill="white"/>
</svg>
