<svg width="386" height="386" viewBox="0 0 386 386" fill="none" xmlns="http://www.w3.org/2000/svg">
<g clip-path="url(#clip0_268_1013)">
<path d="M196.965 5.03476C246.788 21.5844 249.324 81.2449 242.568 108.494C228.042 124.012 198.586 155.462 196.965 157.119C194.938 159.184 72.1462 290.581 77.381 206.776C82.615 122.979 53.0594 129.181 43.9381 108.494C34.8176 87.7992 67.2462 91.9365 75.5217 87.7991C83.7964 83.6697 50.0187 74.3544 68.4275 56.7644C86.837 39.1744 117.071 57.7969 130.246 54.6918C143.421 51.5948 118.355 34.0047 111.837 24.6895C106.77 17.4471 147.141 -11.5229 196.965 5.03476Z" fill="url(#paint0_linear_268_1013)"/>
<path d="M113.007 474.884C100.847 461.431 82.6052 466.601 70.4448 476.949C70.4448 476.949 73.4847 456.117 120.102 395.08C166.718 334.035 82.6052 376.458 82.6052 376.458L35.9883 494.403H122.129C122.129 494.403 122.777 485.687 113.007 474.884Z" fill="url(#paint1_linear_268_1013)"/>
<path d="M372.282 247.126C358.172 230.448 343.906 227.471 340.866 228.503L293.235 245.053C262.495 246.781 198.786 264.716 189.868 322.647C180.95 380.587 248.983 388.862 284.116 385.765C305.397 381.62 352.216 364.654 369.242 329.89C390.523 286.443 391.536 269.885 372.282 247.126Z" fill="url(#paint2_linear_268_1013)"/>
<mask id="mask0_268_1013" style="mask-type:alpha" maskUnits="userSpaceOnUse" x="-39" y="101" width="405" height="346">
<path d="M37.8577 169.531C23.2641 204.295 52.7209 217.123 69.2735 219.196L81.4339 186.089C91.5679 148.836 118.93 88.8316 232.432 103.317C323.234 114.905 348.299 192.979 347.961 230.576C361.811 243.333 380.796 287.059 345.934 359.9C302.358 450.94 107.783 474.74 12.5225 409.557C-63.6852 357.412 -38.1478 251.263 -15.8525 204.711L-4.70491 212.986C-12.0021 177.398 20.6295 169.187 37.8577 169.531Z" fill="white"/>
</mask>
<g mask="url(#mask0_268_1013)">
<path d="M37.8577 169.531C23.2641 204.295 52.7209 217.123 69.2735 219.196L81.4339 186.089C91.5679 148.836 118.93 88.8316 232.432 103.317C323.234 114.905 348.299 192.979 347.961 230.576C361.811 243.333 380.796 287.059 345.934 359.9C302.358 450.94 107.783 474.74 12.5225 409.557C-63.6852 357.412 -38.1478 251.263 -15.8525 204.711L-4.70491 212.986C-12.0021 177.398 20.6295 169.187 37.8577 169.531Z" fill="url(#paint3_linear_268_1013)"/>
<path d="M63.362 399.354C-16.9 369.552 -23.4533 255.889 -16.6978 202.774L-25.8175 184.152L-97.7695 273.127L-16.6978 512.121L328.877 470.738L333.944 383.829C259.964 443.841 163.69 436.599 63.362 399.354Z" fill="#CBD3D5"/>
</g>
<g filter="url(#filter0_dd_268_1013)">
<path d="M115.088 379.547C132.868 355.547 139.428 298.855 128.845 285.403C118.262 271.95 56.529 257.121 46.2985 247.126L26.191 269.885C10.9515 264.091 -6.96811 246.773 -14.0231 238.843C-85.9869 316.437 -55.2962 344.375 -14.0231 370.24C27.25 396.105 92.8644 409.557 115.088 379.547Z" fill="white"/>
</g>
<mask id="mask1_268_1013" style="mask-type:alpha" maskUnits="userSpaceOnUse" x="-58" y="238" width="192" height="159">
<path d="M115.088 379.547C132.868 355.547 139.428 298.855 128.845 285.403C118.262 271.95 56.529 257.121 46.2985 247.126L26.191 269.885C10.9515 264.091 -6.96811 246.773 -14.0231 238.843C-85.9869 316.437 -55.2962 344.375 -14.0231 370.24C27.25 396.105 92.8644 409.557 115.088 379.547Z" fill="white"/>
</mask>
<g mask="url(#mask1_268_1013)">
<path d="M115.088 379.547C132.868 355.547 139.428 298.855 128.845 285.403C118.262 271.95 56.529 257.121 46.2985 247.126L26.191 269.885C10.9515 264.091 -6.96811 246.773 -14.0231 238.843C-85.9869 316.437 -55.2962 344.375 -14.0231 370.24C27.25 396.105 92.8644 409.557 115.088 379.547Z" fill="white"/>
<path d="M125.843 367.279C79.279 477.981 -82.6396 352.794 -77.6611 286.195L-63.2259 271.454L-43.4821 264.852C-48.7742 332.099 34.8296 412.798 125.843 367.279Z" fill="#DFE9EA"/>
</g>
<path d="M122.982 78.4839C166.762 73.5142 202.704 102.62 215.203 117.793L95.6202 179.871C71.2978 139.521 68.2579 84.686 122.982 78.4839Z" fill="white"/>
<path d="M125.313 88.3674C163.732 83.4297 189.016 108.494 197.123 122.979L105.915 186.089C84.571 145.963 77.2871 94.5375 125.313 88.3674Z" fill="url(#paint4_linear_268_1013)"/>
<path d="M270.087 82.6295C253.706 96.0821 242.559 126.084 242.559 160.224L299.31 165.394C303.025 165.394 310.432 151.853 316.704 112.632C324.811 61.9424 286.468 69.1849 270.087 82.6295Z" fill="white"/>
<path d="M276.171 91.9444C258.909 108.278 261.984 117.809 265.025 149.876L298.467 161.256C301.352 161.256 306.77 159.736 311.64 120.906C317.935 70.7132 293.434 75.6108 276.171 91.9444Z" fill="url(#paint5_linear_268_1013)"/>
<path d="M121.965 245.061C158.448 250.231 205.231 227.615 205.231 159.328L164.019 154.014C147.121 162.969 110.94 183.56 101.397 194.3C84.7917 212.986 85.4816 239.891 121.965 245.061Z" fill="#E98888"/>
<path d="M341.028 201.75C314.68 223.478 276.013 171.772 274.99 170.707L294.429 133.327L329.214 152.549C335.693 163.225 351.249 193.323 341.028 201.75Z" fill="#E98888"/>
<path d="M292.384 232.785C264.007 271.07 220.431 316.589 188.002 295.894C155.573 275.207 195.974 243.22 213.338 202.782C230.701 162.345 239.559 143.218 264.007 154.158C288.455 165.097 309.747 192.347 292.384 232.785Z" fill="url(#paint6_linear_268_1013)"/>
<path d="M265.527 155.542C273.356 189.466 303.819 200.165 323.644 195.404C343.47 190.634 345.089 148.436 334.957 123.123C324.824 97.8025 302.084 80.0683 282.259 84.838C262.433 89.6076 257.698 121.619 265.527 155.542Z" fill="black"/>
<path d="M203.212 170.715C194.185 211.113 161.333 235.594 129.233 227.615C97.1325 219.644 75.6156 184.216 84.6428 143.818C93.6701 103.42 135.642 85.1421 167.743 93.1209C199.843 101.092 212.239 130.318 203.212 170.715Z" fill="black"/>
<mask id="mask2_268_1013" style="mask-type:alpha" maskUnits="userSpaceOnUse" x="85" y="89" width="256" height="143">
<path d="M202.963 177.502C193.978 216.427 161.015 237.218 129.066 229.536C97.1153 221.853 78.277 188.602 87.2619 149.668C96.2468 110.735 137.648 91.4882 169.598 99.1789C201.548 106.861 211.948 138.568 202.963 177.502Z" fill="#FFF5C4"/>
<path d="M265.519 155.535C273.348 189.458 303.811 200.166 323.636 195.396C343.462 190.626 344.916 155.534 334.783 130.222C324.651 104.901 302.194 85.4624 282.368 90.2321C262.543 95.0017 257.69 121.611 265.519 155.535Z" fill="#FFF5C4"/>
</mask>
<g mask="url(#mask2_268_1013)">
<path d="M202.963 177.502C193.978 216.427 161.015 237.218 129.066 229.536C97.1153 221.853 78.277 188.602 87.2619 149.668C96.2468 110.735 137.648 91.4882 169.598 99.1789C201.548 106.861 211.948 138.568 202.963 177.502Z" fill="#FFF09E"/>
<path d="M265.519 155.535C273.348 189.458 303.811 200.166 323.636 195.396C343.462 190.626 344.916 155.534 334.783 130.222C324.651 104.901 302.194 85.4624 282.368 90.2321C262.543 95.0017 257.69 121.611 265.519 155.535Z" fill="#FFF09E"/>
<path d="M334.351 152.234C339.284 150.406 340.652 141.527 337.407 132.401C334.162 123.276 327.532 117.361 322.6 119.189C317.667 121.017 316.299 129.897 319.544 139.022C322.789 148.147 329.418 154.062 334.351 152.234Z" fill="#433F20"/>
<path d="M279.217 145.883C264.624 121.875 273.137 98.6348 279.217 90.0159L252.869 97.2584L244.762 211.057L333.942 223.478L342.049 167.61C334.955 194.508 297.458 175.885 279.217 145.883Z" fill="#EBD778"/>
<path d="M96.7998 154.158C102.88 106.565 125.176 98.7709 147.471 97.2584L86.6657 101.396C80.923 116.569 69.4375 147.332 69.4375 148.988C69.4375 150.645 75.5181 206.232 78.5588 233.825L191.047 255.553C210.302 236.234 217.364 118.394 205.235 158.295C177.873 248.31 90.7192 201.75 96.7998 154.158Z" fill="#EBD778"/>
<path d="M117.29 161.238C124.126 163.782 132.594 157.647 136.203 147.535C139.813 137.424 137.197 127.165 130.36 124.622C123.524 122.079 115.056 128.214 111.447 138.325C107.838 148.436 110.454 158.695 117.29 161.238Z" fill="#433F20"/>
</g>
<path d="M284.969 234.722C294.606 268.245 273.375 257.281 254.053 249.222C234.731 241.172 225.411 216.307 233.238 193.691C241.063 171.068 283.025 133.487 303.943 174.277C324.861 215.067 270.803 185.441 284.969 234.722Z" fill="#2F2F2F"/>
<path d="M234.169 250.671C248.864 268.093 276.663 281.834 296.24 241.476C296.24 241.476 263.902 246.774 243.204 233.249C234.048 227.263 237.021 211.842 236.349 202.927C235.503 191.683 224.961 189.21 216.928 197.093C202.525 211.234 219.475 233.257 234.169 250.671Z" fill="url(#paint7_radial_268_1013)"/>
<path d="M205.72 241.66C203.24 219.124 228.006 210.361 242.371 206.36C249.78 204.303 250.648 199.405 256.328 203.559C262.007 207.704 261.338 215.379 251.195 219.26C241.052 223.142 238.667 231.072 237.028 248.294C235.167 267.853 208.67 268.445 205.72 241.66Z" fill="url(#paint8_linear_268_1013)"/>
<path d="M232.186 167.867C227.616 184.2 220.682 163.417 209.556 179.951C198.43 196.492 219.211 218.836 242.057 210.801C264.902 202.766 279.701 194.388 290.987 197.085C301.029 199.485 301.77 202.278 306.088 210.801C328.36 159.055 298.629 146.131 279.23 139.633C259.83 133.127 237.898 147.444 232.186 167.867Z" fill="url(#paint9_radial_268_1013)"/>
<path d="M262.543 159.44C256.287 163.233 250.71 165.626 248.091 161.12C245.471 156.615 248.419 149.892 254.676 146.099C260.932 142.306 268.126 142.882 270.746 147.387C273.365 151.893 268.799 155.646 262.543 159.44Z" fill="#FFE973"/>
<path d="M267.944 363.382C254.921 369.736 249.28 347.456 248.088 335.524C267.961 335.82 285.699 321.847 292.084 314.829C304.941 317.766 304.264 330.33 296.664 341.318C290.585 350.105 279.557 338.821 274.803 332.083C277.943 339.869 280.968 357.027 267.944 363.382Z" fill="#DBEAEC"/>
<path d="M349.613 353.832C363.605 353.832 374.948 345.958 374.948 336.244C374.948 326.531 363.605 318.656 349.613 318.656C335.62 318.656 324.277 326.531 324.277 336.244C324.277 345.958 335.62 353.832 349.613 353.832Z" fill="#EEF7FA"/>
<path d="M336.201 378.154C346.408 387.682 359.817 389.673 366.15 382.602C372.483 375.531 369.342 362.074 359.134 352.547C348.927 343.019 335.519 341.027 329.186 348.099C322.853 355.17 325.994 368.626 336.201 378.154Z" fill="#EEF7FA"/>
</g>
<defs>
<filter id="filter0_dd_268_1013" x="-62.4115" y="231.086" width="196.347" height="175.942" filterUnits="userSpaceOnUse" color-interpolation-filters="sRGB">
<feFlood flood-opacity="0" result="BackgroundImageFix"/>
<feColorMatrix in="SourceAlpha" type="matrix" values="0 0 0 0 0 0 0 0 0 0 0 0 0 0 0 0 0 0 127 0" result="hardAlpha"/>
<feOffset dy="10.3424"/>
<feComposite in2="hardAlpha" operator="out"/>
<feColorMatrix type="matrix" values="0 0 0 0 0.672222 0 0 0 0 0.726543 0 0 0 0 0.733333 0 0 0 1 0"/>
<feBlend mode="normal" in2="BackgroundImageFix" result="effect1_dropShadow_268_1013"/>
<feColorMatrix in="SourceAlpha" type="matrix" values="0 0 0 0 0 0 0 0 0 0 0 0 0 0 0 0 0 0 127 0" result="hardAlpha"/>
<feOffset dx="-5.17122" dy="-7.75683"/>
<feComposite in2="hardAlpha" operator="out"/>
<feColorMatrix type="matrix" values="0 0 0 0 0.81724 0 0 0 0 0.879693 0 0 0 0 0.8875 0 0 0 1 0"/>
<feBlend mode="normal" in2="effect1_dropShadow_268_1013" result="effect2_dropShadow_268_1013"/>
<feBlend mode="normal" in="SourceGraphic" in2="effect2_dropShadow_268_1013" result="shape"/>
</filter>
<linearGradient id="paint0_linear_268_1013" x1="143.819" y1="9.31622" x2="143.819" y2="234.689" gradientUnits="userSpaceOnUse">
<stop stop-color="#E33131"/>
<stop offset="1" stop-color="#8B1313"/>
</linearGradient>
<linearGradient id="paint1_linear_268_1013" x1="93.7528" y1="420.049" x2="84.7212" y2="494.359" gradientUnits="userSpaceOnUse">
<stop stop-color="#814610"/>
<stop offset="1" stop-color="#DDA71C"/>
</linearGradient>
<linearGradient id="paint2_linear_268_1013" x1="287.536" y1="228.319" x2="287.536" y2="386.325" gradientUnits="userSpaceOnUse">
<stop stop-color="#C9D1D2"/>
<stop offset="1" stop-color="#809497"/>
</linearGradient>
<linearGradient id="paint3_linear_268_1013" x1="163.562" y1="101.108" x2="163.562" y2="446.514" gradientUnits="userSpaceOnUse">
<stop stop-color="white"/>
<stop offset="1" stop-color="#E6F4F7"/>
</linearGradient>
<linearGradient id="paint4_linear_268_1013" x1="143.412" y1="87.8072" x2="124.51" y2="134.089" gradientUnits="userSpaceOnUse">
<stop stop-color="#C3D3D5"/>
<stop offset="1" stop-color="#C3D3D4" stop-opacity="0"/>
</linearGradient>
<linearGradient id="paint5_linear_268_1013" x1="277.184" y1="87.799" x2="306.989" y2="108.94" gradientUnits="userSpaceOnUse">
<stop stop-color="#C3D3D4"/>
<stop offset="1" stop-color="#C3D3D4" stop-opacity="0"/>
</linearGradient>
<linearGradient id="paint6_linear_268_1013" x1="242.728" y1="219.34" x2="77.0164" y2="346.368" gradientUnits="userSpaceOnUse">
<stop stop-color="#DBEAEC"/>
<stop offset="1" stop-color="#DBEAEC" stop-opacity="0"/>
</linearGradient>
<radialGradient id="paint7_radial_268_1013" cx="0" cy="0" r="1" gradientUnits="userSpaceOnUse" gradientTransform="translate(263.414 231.785) rotate(101.962) scale(39.4467 60.2544)">
<stop stop-color="#F0C11C"/>
<stop offset="1" stop-color="#CF8810"/>
</radialGradient>
<linearGradient id="paint8_linear_268_1013" x1="254.276" y1="199.55" x2="222.368" y2="259.493" gradientUnits="userSpaceOnUse">
<stop stop-color="#ED3535"/>
<stop offset="1" stop-color="#FF6D6D"/>
</linearGradient>
<radialGradient id="paint9_radial_268_1013" cx="0" cy="0" r="1" gradientUnits="userSpaceOnUse" gradientTransform="translate(259.365 163.249) rotate(35.1683) scale(69.3177 112.51)">
<stop stop-color="#FFCF24"/>
<stop offset="1" stop-color="#DF920F"/>
</radialGradient>
<clipPath id="clip0_268_1013">
<rect width="386" height="386" rx="193" fill="white"/>
</clipPath>
</defs>
</svg>
